<svg width="378" height="293" viewBox="0 0 378 293" fill="none" xmlns="http://www.w3.org/2000/svg">
<g clip-path="url(#clip0_258_189)">
<rect width="378" height="293" fill="#FBECFA"/>
<path d="M310 141.5C310 126.332 306.831 111.313 300.675 97.3001C294.519 83.287 285.496 70.5543 274.121 59.8292C262.745 49.104 249.241 40.5963 234.379 34.7919C219.516 28.9875 203.587 26 187.5 26C171.413 26 155.484 28.9875 140.621 34.7919C125.759 40.5963 112.255 49.104 100.879 59.8292C89.5042 70.5543 80.481 83.287 74.3248 97.3001C68.1686 111.313 65 126.332 65 141.5L187.5 141.5H310Z" fill="#C188A9"/>
<path d="M310 141.5C310 126.332 306.831 111.313 300.675 97.3001C294.519 83.287 285.496 70.5543 274.121 59.8292C262.745 49.104 249.241 40.5963 234.379 34.7919C219.516 28.9875 203.587 26 187.5 26C171.413 26 155.484 28.9875 140.621 34.7919C125.759 40.5963 112.255 49.104 100.879 59.8292C89.5042 70.5543 80.481 83.287 74.3248 97.3001C68.1686 111.313 65 126.332 65 141.5L187.5 141.5H310Z" fill="#C188A9"/>
<path d="M310 141.5C310 126.332 306.831 111.313 300.675 97.3001C294.519 83.287 285.496 70.5543 274.121 59.8292C262.745 49.104 249.241 40.5963 234.379 34.7919C219.516 28.9875 203.587 26 187.5 26C171.413 26 155.484 28.9875 140.621 34.7919C125.759 40.5963 112.255 49.104 100.879 59.8292C89.5042 70.5543 80.481 83.287 74.3248 97.3001C68.1686 111.313 65 126.332 65 141.5L187.5 141.5H310Z" fill="#C188A9"/>
<mask id="path-2-inside-1_258_189" fill="white">
<path d="M65 139C65 153.314 68.1686 167.488 74.3248 180.712C80.481 193.937 89.5042 205.953 100.879 216.075C112.255 226.196 125.759 234.225 140.621 239.703C155.484 245.181 171.413 248 187.5 248C203.587 248 219.516 245.181 234.379 239.703C249.241 234.225 262.745 226.196 274.121 216.075C285.496 205.953 294.519 193.937 300.675 180.712C306.831 167.488 310 153.314 310 139L187.5 139L65 139Z"/>
</mask>
<path d="M65 139C65 153.314 68.1686 167.488 74.3248 180.712C80.481 193.937 89.5042 205.953 100.879 216.075C112.255 226.196 125.759 234.225 140.621 239.703C155.484 245.181 171.413 248 187.5 248C203.587 248 219.516 245.181 234.379 239.703C249.241 234.225 262.745 226.196 274.121 216.075C285.496 205.953 294.519 193.937 300.675 180.712C306.831 167.488 310 153.314 310 139L187.5 139L65 139Z" fill="#C188A9"/>
<path d="M65 139C65 153.314 68.1686 167.488 74.3248 180.712C80.481 193.937 89.5042 205.953 100.879 216.075C112.255 226.196 125.759 234.225 140.621 239.703C155.484 245.181 171.413 248 187.5 248C203.587 248 219.516 245.181 234.379 239.703C249.241 234.225 262.745 226.196 274.121 216.075C285.496 205.953 294.519 193.937 300.675 180.712C306.831 167.488 310 153.314 310 139L187.5 139L65 139Z" fill="#C188A9"/>
<path d="M65 139C65 153.314 68.1686 167.488 74.3248 180.712C80.481 193.937 89.5042 205.953 100.879 216.075C112.255 226.196 125.759 234.225 140.621 239.703C155.484 245.181 171.413 248 187.5 248C203.587 248 219.516 245.181 234.379 239.703C249.241 234.225 262.745 226.196 274.121 216.075C285.496 205.953 294.519 193.937 300.675 180.712C306.831 167.488 310 153.314 310 139L187.5 139L65 139Z" fill="#61277D"/>
<path d="M65 139C65 153.314 68.1686 167.488 74.3248 180.712C80.481 193.937 89.5042 205.953 100.879 216.075C112.255 226.196 125.759 234.225 140.621 239.703C155.484 245.181 171.413 248 187.5 248C203.587 248 219.516 245.181 234.379 239.703C249.241 234.225 262.745 226.196 274.121 216.075C285.496 205.953 294.519 193.937 300.675 180.712C306.831 167.488 310 153.314 310 139L187.5 139L65 139Z" stroke="#C188A9" stroke-width="8" mask="url(#path-2-inside-1_258_189)"/>
<path d="M282 136.5C282 183.569 240.521 222 189 222C137.479 222 96 183.569 96 136.5C96 89.4313 137.479 51 189 51C240.521 51 282 89.4313 282 136.5Z" fill="#61277D" stroke="#C188A9" stroke-width="4"/>
<circle cx="188.5" cy="139.5" r="61.5" fill="#CEC2FB"/>
<path d="M247.957 134.571C246.064 134.023 244.455 133.073 243.345 131.846C242.481 130.879 241.919 129.788 241.698 128.646C241.668 128.136 241.614 127.616 241.535 127.086C241.048 123.863 239.187 117.793 232.202 113.36C224.186 108.272 214.747 108.632 209.833 109.299C207.895 109.565 205.936 109.743 203.97 109.834L202.483 109.902C199.005 110.062 195.518 109.937 192.089 109.528C191.194 109.42 190.217 109.316 189.183 109.206C187.319 109.008 185.213 108.783 182.927 108.466C180.844 107.238 178.591 106.584 176.365 106.588C175.025 106.601 173.703 106.831 172.497 107.259C168.209 106.289 160.155 105.208 152.238 108.119C146.278 110.312 141.809 114.282 139.505 119.099C137.741 118.584 136.049 117.953 134.45 117.213C134.219 117.107 133.945 117.057 133.669 117.071C133.394 117.085 133.13 117.161 132.918 117.29C132.706 117.419 132.556 117.592 132.491 117.785C132.426 117.978 132.449 118.18 132.556 118.362C133.533 120.039 134.984 121.551 136.818 122.801C137.211 123.069 137.622 123.322 138.049 123.561C137.847 124.661 137.75 125.768 137.759 126.875C135.503 126.228 133.427 125.301 131.624 124.137C131.406 123.997 131.127 123.916 130.833 123.906C130.54 123.896 130.249 123.959 130.01 124.083C129.77 124.207 129.596 124.386 129.516 124.59C129.437 124.793 129.456 125.01 129.571 125.202C130.686 127.065 133.315 130.407 138.53 132.256C138.551 137.822 138.605 147.63 138.636 153.057C138.643 154.32 138.999 155.566 139.682 156.724C140.365 157.882 141.363 158.929 142.618 159.804C143.872 160.68 145.359 161.367 146.993 161.826C148.626 162.284 150.374 162.506 152.135 162.478L152.501 162.472C152.838 162.466 153.168 162.391 153.45 162.256C153.733 162.12 153.956 161.93 154.092 161.707C154.229 161.485 154.275 161.239 154.223 161C154.171 160.762 154.024 160.539 153.799 160.36L153.374 160.02C153.354 160.005 153.343 159.986 153.342 159.966C153.34 159.945 153.349 159.925 153.366 159.909L154.037 159.249C154.231 159.059 154.348 158.834 154.375 158.6C154.402 158.366 154.337 158.132 154.188 157.924C154.039 157.716 153.811 157.543 153.531 157.424C153.251 157.305 152.929 157.245 152.601 157.25C151.47 157.268 150.38 156.963 149.571 156.402C148.763 155.842 148.301 155.071 148.288 154.26C148.287 154.228 148.287 154.197 148.288 154.16L148.927 133.288C151.125 133.009 153.245 132.465 155.198 131.68C156.079 131.317 156.918 130.902 157.705 130.44C158.979 131.448 160.434 132.331 162.032 133.066C162.031 134.407 163.228 135.599 164.924 135.92L163.858 139.339C162.868 142.514 161.877 145.689 160.885 148.865C159.701 152.666 159.114 156.546 159.135 160.431L159.136 160.479C159.142 161.845 158.344 163.201 156.887 164.298C156.599 164.521 156.408 164.8 156.339 165.098C156.27 165.397 156.325 165.703 156.498 165.977C156.646 166.236 156.9 166.456 157.227 166.609C157.554 166.761 157.938 166.84 158.331 166.834L170.072 166.645C170.486 166.637 170.894 166.57 171.274 166.448C171.653 166.326 171.995 166.15 172.279 165.933C172.597 165.689 172.846 165.403 173.01 165.092C173.175 164.781 173.252 164.45 173.238 164.119L173.028 158.509C173 157.804 173.224 157.103 173.677 156.472L175.106 154.547C176.112 153.192 177.119 151.836 178.126 150.481C179.333 155.551 179.62 160.044 177.532 161.62C177.466 161.67 177.385 161.728 177.295 161.793C176.415 162.427 174.778 163.608 175.156 164.913C175.241 165.193 175.41 165.456 175.651 165.683C175.935 165.95 176.303 166.164 176.725 166.309C177.148 166.453 177.613 166.524 178.084 166.516L192.204 166.289C192.718 166.276 193.212 166.135 193.599 165.889C193.987 165.644 194.244 165.31 194.326 164.945C194.338 164.891 194.347 164.837 194.352 164.782C194.411 164.08 193.897 163.597 193.353 163.085C193.074 162.832 192.815 162.567 192.578 162.292C192.18 161.816 191.971 161.271 191.971 160.714L191.872 145.96C191.865 145.374 192.069 144.795 192.464 144.278C192.676 144.001 192.888 143.725 193.101 143.449C197.039 144.404 201.142 144.982 205.304 145.167C206.605 145.224 207.915 145.242 209.225 145.221C210.257 145.205 211.287 145.164 212.316 145.098C212.541 147.433 212.44 149.781 212.015 152.107C211.495 154.927 210.783 158.789 207.186 162.307C207.035 162.456 206.879 162.603 206.718 162.747C206.399 163.043 206.194 163.395 206.125 163.764C206.056 164.134 206.125 164.509 206.326 164.851L206.336 164.868C206.533 165.213 206.869 165.507 207.302 165.712C207.734 165.917 208.244 166.025 208.765 166.022L220.179 165.838C221.734 165.813 222.98 164.875 223.026 163.699L223.027 163.696C223.028 163.684 223.029 163.671 223.029 163.658C223.036 163.381 222.973 163.105 222.844 162.844L222.523 162.206C222.373 161.903 222.354 161.573 222.466 161.26L225.976 151.585C226.205 150.953 226.556 150.346 227.018 149.782C226.954 150.858 226.922 151.934 226.921 153.009C226.925 155.331 227.078 157.681 227.376 159.994C227.473 160.749 227.299 161.512 226.872 162.21C226.677 162.532 226.48 162.853 226.283 163.174L226.223 163.272C225.832 163.913 225.86 164.553 226.3 165.026C226.528 165.254 226.834 165.436 227.188 165.556C227.543 165.675 227.936 165.727 228.329 165.707L239.113 165.534C240.026 165.519 240.772 165.238 241.161 164.763C241.571 164.262 241.533 163.612 241.056 162.98L240.306 161.98C239.9 161.438 239.658 160.84 239.594 160.225C239.23 156.906 239.019 153.578 238.961 150.247C238.893 146.22 239.051 142.191 239.435 138.169C239.946 137.236 240.375 136.282 240.72 135.312C242.227 136.511 244.097 137.449 246.189 138.055C246.479 138.136 246.79 138.176 247.104 138.171C247.151 138.17 247.199 138.169 247.246 138.166C247.729 138.131 248.188 137.996 248.568 137.777C248.948 137.558 249.231 137.265 249.383 136.934C249.606 136.481 249.583 135.985 249.319 135.547C249.054 135.109 248.568 134.761 247.957 134.571ZM137.952 121.944C136.56 120.997 135.411 119.882 134.554 118.648C135.979 119.256 137.469 119.784 139.009 120.228C138.753 120.873 138.534 121.531 138.355 122.201C138.22 122.116 138.082 122.032 137.952 121.944ZM152.619 158.425C152.641 158.425 152.664 158.429 152.683 158.437C152.703 158.445 152.719 158.457 152.729 158.472C152.739 158.486 152.744 158.502 152.742 158.519C152.74 158.535 152.731 158.551 152.717 158.564L152.045 159.225C151.804 159.459 151.683 159.745 151.702 160.034C151.721 160.323 151.878 160.597 152.148 160.81L152.573 161.15C152.589 161.162 152.599 161.178 152.603 161.194C152.607 161.211 152.604 161.228 152.594 161.244C152.585 161.259 152.569 161.273 152.55 161.282C152.53 161.292 152.507 161.297 152.483 161.297L152.118 161.303C150.573 161.328 149.039 161.134 147.606 160.731C146.173 160.329 144.869 159.726 143.768 158.958C142.668 158.19 141.792 157.271 141.193 156.255C140.593 155.24 140.281 154.146 140.275 153.039C140.245 147.778 140.193 138.4 140.171 132.762C142.106 133.274 144.162 133.519 146.232 133.483C146.59 133.477 146.939 133.461 147.283 133.44L146.65 154.144C146.648 154.192 146.648 154.238 146.649 154.287C146.667 155.409 147.306 156.475 148.425 157.251C149.545 158.027 151.053 158.449 152.619 158.425ZM163.688 132.816L165.294 123.466C165.32 123.311 165.26 123.156 165.126 123.034C164.992 122.912 164.796 122.834 164.58 122.817C164.365 122.8 164.147 122.845 163.976 122.942C163.805 123.04 163.693 123.181 163.667 123.336L162.225 131.736C161.025 131.131 159.923 130.433 158.937 129.655C159.327 129.384 159.705 129.101 160.07 128.804C160.141 128.746 160.196 128.678 160.231 128.605C160.267 128.532 160.282 128.455 160.275 128.378C160.269 128.301 160.242 128.226 160.195 128.157C160.148 128.088 160.082 128.026 160.002 127.975C159.921 127.925 159.828 127.886 159.726 127.862C159.624 127.837 159.517 127.828 159.409 127.833C159.302 127.838 159.197 127.859 159.1 127.893C159.003 127.928 158.916 127.976 158.845 128.034C157.572 129.08 156.068 129.968 154.395 130.663C152.649 131.381 146.431 133.553 139.696 131.348C135.531 129.984 133.083 127.555 131.764 125.757C134.709 127.397 139.661 129.353 145.818 128.715C150.45 128.234 153.858 126.491 155.902 125.112C156.061 125.005 156.155 124.857 156.163 124.701C156.171 124.546 156.092 124.395 155.944 124.282C155.796 124.169 155.591 124.103 155.374 124.099C155.157 124.095 154.945 124.154 154.786 124.261C152.917 125.522 149.806 127.116 145.602 127.552C143.528 127.765 141.419 127.668 139.41 127.267C139.32 124.839 139.781 122.413 140.774 120.082L140.776 120.079C140.779 120.072 140.78 120.066 140.783 120.06C142.858 115.263 147.159 111.302 152.973 109.163C159.681 106.697 166.676 107.373 170.565 108.09C168.259 109.284 166.462 110.947 165.355 112.144C165.239 112.275 165.198 112.432 165.242 112.583C165.286 112.733 165.411 112.865 165.589 112.949C165.768 113.033 165.987 113.063 166.198 113.032C166.409 113.001 166.596 112.913 166.719 112.785C170.749 108.422 174.479 107.768 176.349 107.763C178.221 107.76 180.147 108.338 181.957 109.423C181.978 109.437 181.999 109.451 182.022 109.463C182.872 109.985 183.645 110.568 184.33 111.202C187.687 114.275 190.317 119.588 188.625 124.529C187.506 127.796 184.574 130.667 180.371 132.611C175.959 134.63 170.681 135.415 165.553 134.814C164.379 134.682 163.525 133.767 163.688 132.816ZM173.661 154.005L172.229 155.934C171.644 156.744 171.355 157.646 171.39 158.554L171.6 164.164C171.608 164.34 171.569 164.515 171.483 164.681C171.397 164.846 171.266 164.998 171.099 165.128C170.965 165.231 170.803 165.315 170.624 165.374C170.444 165.433 170.251 165.466 170.055 165.47L158.313 165.659C158.244 165.66 158.176 165.644 158.12 165.615C158.064 165.586 158.022 165.545 158.002 165.497C157.959 165.434 157.943 165.363 157.955 165.293C157.967 165.223 158.007 165.156 158.07 165.102C159.822 163.782 160.782 162.134 160.775 160.457L160.774 160.409C160.754 156.613 161.328 152.823 162.484 149.108C163.477 145.932 164.468 142.757 165.458 139.582L166.547 136.09C167.509 136.161 168.478 136.19 169.446 136.175C170.691 136.155 171.932 136.062 173.158 135.898C173.936 137.712 174.659 139.538 175.326 141.375C176.165 143.697 176.991 146.196 177.653 148.629C176.322 150.421 174.991 152.213 173.661 154.005ZM239.612 163.547C239.805 163.804 239.858 164.045 239.75 164.177C239.66 164.288 239.421 164.354 239.095 164.359L228.311 164.533C228.131 164.536 227.807 164.518 227.667 164.367C227.542 164.232 227.563 163.995 227.723 163.733L227.782 163.636C227.98 163.313 228.177 162.991 228.372 162.67C228.912 161.788 229.13 160.825 229.008 159.872C228.714 157.587 228.564 155.292 228.56 152.995C228.56 151.412 228.631 149.809 228.77 148.227C228.955 148.106 229.146 147.99 229.344 147.881C232.705 146.017 235.501 143.681 237.56 141.02C237.349 144.104 237.27 147.19 237.322 150.275C237.38 153.632 237.593 156.986 237.96 160.33C238.041 161.108 238.348 161.863 238.862 162.547L239.612 163.547ZM236.634 139.783C234.65 142.58 231.821 145.03 228.355 146.953C228.035 147.13 227.729 147.32 227.439 147.523C227.43 147.528 227.421 147.535 227.412 147.542C225.946 148.577 224.901 149.878 224.39 151.302L220.881 160.976C220.682 161.519 220.717 162.09 220.98 162.614L221.3 163.253C221.361 163.376 221.392 163.507 221.391 163.639C221.39 163.65 221.389 163.66 221.389 163.671C221.373 164.217 220.834 164.653 220.162 164.664L208.748 164.847C208.551 164.845 208.361 164.801 208.2 164.721C208.04 164.641 207.916 164.528 207.845 164.397L207.836 164.381C207.748 164.234 207.717 164.072 207.745 163.912C207.773 163.753 207.86 163.601 207.996 163.472C208.17 163.315 208.339 163.157 208.503 162.995C212.352 159.23 213.097 155.194 213.64 152.248C214.116 149.642 214.199 147.01 213.887 144.398L213.887 144.395L213.887 144.392C213.791 143.579 213.658 142.765 213.488 141.952C213.455 141.798 213.339 141.661 213.164 141.57C212.989 141.479 212.77 141.442 212.555 141.467C212.34 141.492 212.147 141.577 212.018 141.703C211.889 141.829 211.835 141.987 211.867 142.141C211.992 142.736 212.096 143.332 212.18 143.929C209.931 144.07 207.673 144.093 205.424 143.995C201.5 143.82 197.629 143.283 193.907 142.399L196.191 139.425C196.294 139.288 196.318 139.128 196.258 138.979C196.197 138.831 196.057 138.707 195.868 138.633C195.679 138.56 195.456 138.543 195.248 138.587C195.04 138.631 194.863 138.732 194.757 138.868C193.514 140.485 192.272 142.103 191.031 143.72C190.5 144.414 190.225 145.193 190.233 145.981L190.332 160.732C190.333 161.501 190.623 162.252 191.172 162.907C191.439 163.218 191.731 163.518 192.046 163.805C192.514 164.245 192.738 164.468 192.718 164.711C192.716 164.725 192.715 164.739 192.712 164.752C192.71 164.759 192.708 164.766 192.707 164.773C192.689 164.864 192.627 164.948 192.532 165.011C192.437 165.073 192.314 165.109 192.186 165.114L178.066 165.341C177.854 165.347 177.644 165.316 177.452 165.252C177.261 165.188 177.094 165.091 176.966 164.971C176.866 164.879 176.796 164.772 176.76 164.658C176.562 163.977 177.837 163.058 178.45 162.617C178.55 162.544 178.64 162.48 178.714 162.424C181.111 160.615 181.324 156.093 179.345 148.685C179.345 148.612 179.326 148.54 179.288 148.473C178.689 146.259 177.897 143.791 176.912 141.067C176.252 139.247 175.537 137.437 174.767 135.64C177.062 135.209 179.249 134.519 181.248 133.596C185.81 131.485 188.995 128.36 190.216 124.797C191.795 120.187 189.95 114.43 185.625 110.471C185.423 110.287 185.216 110.107 185.002 109.931C186.402 110.1 187.713 110.239 188.923 110.368C189.95 110.478 190.919 110.581 191.799 110.687C195.351 111.11 198.965 111.24 202.568 111.074L204.055 111.007C206.089 110.913 208.115 110.728 210.12 110.453C214.74 109.826 223.609 109.484 231.107 114.244C237.686 118.419 239.444 124.17 239.906 127.227C240.771 132.938 238.228 137.545 236.634 139.783ZM247.834 136.563C247.787 136.676 247.694 136.777 247.569 136.854C247.443 136.931 247.289 136.98 247.126 136.995C247.016 137.001 246.907 136.99 246.805 136.961C244.563 136.31 242.616 135.234 241.171 133.847C241.332 133.233 241.457 132.615 241.548 131.995C241.68 132.165 241.82 132.332 241.968 132.495C243.261 133.921 245.134 135.027 247.338 135.664C247.561 135.742 247.736 135.877 247.828 136.043C247.919 136.209 247.922 136.395 247.834 136.563ZM156.673 115.575C156.185 115.583 155.71 115.694 155.307 115.895C154.904 116.096 154.591 116.377 154.409 116.703C154.227 117.029 154.184 117.386 154.284 117.727C154.384 118.069 154.624 118.38 154.973 118.622C155.322 118.864 155.764 119.025 156.244 119.086C156.723 119.146 157.219 119.103 157.668 118.962C158.117 118.821 158.499 118.588 158.766 118.293C159.033 117.998 159.172 117.654 159.167 117.304C159.16 116.835 158.893 116.39 158.425 116.065C157.958 115.741 157.328 115.565 156.673 115.575ZM156.708 117.938C156.544 117.94 156.384 117.908 156.246 117.845C156.109 117.782 156.001 117.691 155.937 117.583C155.873 117.476 155.854 117.356 155.885 117.241C155.915 117.125 155.992 117.018 156.107 116.933C156.222 116.848 156.369 116.789 156.529 116.763C156.69 116.738 156.856 116.747 157.009 116.789C157.161 116.832 157.291 116.906 157.384 117.002C157.476 117.099 157.527 117.213 157.528 117.33C157.531 117.488 157.445 117.64 157.292 117.754C157.138 117.868 156.928 117.934 156.708 117.938Z" fill="#61277D"/>
</g>
<path d="M123.653 58.6597C123.59 58.3178 123.549 58.0048 123.531 57.7205C123.504 57.4248 123.488 57.1303 123.481 56.837C123.478 56.5232 123.473 56.1726 123.468 55.7855L123.935 55.4189C124.081 55.6769 124.288 55.9996 124.554 56.387C124.812 56.7629 125.17 57.2554 125.629 57.8646C126.088 58.4738 126.689 59.2516 127.431 60.1979C128.164 61.1328 129.074 62.2926 130.16 63.6776L131.852 62.7697L132.026 63.6682C131.919 63.7702 131.764 63.9291 131.561 64.1447C131.357 64.3603 131.143 64.5747 130.919 64.7879C130.704 65.0126 130.513 65.2089 130.346 65.3768C130.191 65.5356 130.096 65.6286 130.062 65.6557C130.027 65.6829 129.932 65.6923 129.776 65.6839C129.621 65.6755 129.46 65.6614 129.296 65.6414C129.142 65.6125 129.052 65.5807 129.025 65.546C128.695 65.0778 128.385 64.6224 128.093 64.1798C127.805 63.7166 127.411 63.1676 126.914 62.5328C126.534 62.0481 126.145 61.5885 125.749 61.154C125.343 60.708 124.961 60.2805 124.603 59.8716C124.236 59.4511 123.919 59.0472 123.653 58.6597ZM128.022 58.8121L131.264 56.1016L131.984 57.0191L128.578 59.5219L128.022 58.8121ZM125.686 54.1577L131.442 61.4979C131.496 61.5671 131.567 61.7167 131.654 61.9466C131.732 62.165 131.798 62.4393 131.852 62.7697L131.316 63.1906L124.786 54.8637L125.686 54.1577ZM121.229 57.066L120.345 55.6899C121.016 55.2383 121.747 54.7678 122.537 54.2784C123.33 53.7684 124.109 53.288 124.874 52.8373C125.641 52.366 126.322 51.9626 126.916 51.627C127.511 51.2915 127.95 51.0678 128.235 50.9561C128.268 50.9495 128.335 50.9524 128.438 50.9649C128.544 50.9568 128.652 50.9647 128.764 50.9887C128.879 50.9921 128.986 51.0103 129.087 51.0434C129.178 51.0649 129.233 51.0871 129.251 51.1102L135.686 59.3159L136.963 58.7339L137.492 59.4091C137.372 59.5408 137.216 59.7099 137.024 59.9165C136.823 60.1115 136.616 60.3111 136.403 60.5152C136.199 60.7308 136.015 60.9123 135.851 61.0596C135.696 61.2184 135.601 61.3114 135.567 61.3386C135.532 61.3657 135.432 61.3693 135.268 61.3494C135.112 61.341 134.958 61.3224 134.804 61.2934C134.663 61.2554 134.578 61.219 134.551 61.1844L128.252 53.1518L124.038 55.7292L123.494 56.2118L123.378 56.1351L121.229 57.066Z" fill="#61277D"/>
<path d="M145.742 42.1105L144.568 56.7499L143.947 56.8263C143.794 56.574 143.652 56.3088 143.52 56.0307C143.387 55.7525 143.271 55.4911 143.171 55.2464C143.078 54.9822 143 54.751 142.939 54.553C142.89 54.3487 142.87 54.1876 142.879 54.0696L143.578 44.0656L140.028 45.413L141.04 48.0012L139.948 48.521L138.035 45.1672C138.48 44.9397 138.97 44.6902 139.507 44.4186C140.043 44.1471 140.593 43.8692 141.157 43.5851C141.713 43.2877 142.247 43.0095 142.757 42.7506C143.267 42.4916 143.715 42.2708 144.099 42.0881C144.49 41.8858 144.778 41.7406 144.963 41.6524C145.03 41.6209 145.154 41.6594 145.335 41.7679C145.53 41.8702 145.665 41.9844 145.742 42.1105ZM145.842 55.5351L147.015 40.8956L147.637 40.8193C147.698 41.0173 147.762 41.2711 147.828 41.5807C147.895 41.8904 147.948 42.1899 147.988 42.4794C148.022 42.7556 148.034 42.969 148.025 43.1197L147.173 53.9276L150.94 52.5256L149.902 49.7301L150.975 49.2198L152.932 52.7714C152.356 53.0618 151.74 53.3712 151.084 53.6994C150.447 54.0346 149.828 54.3537 149.225 54.6568C148.628 54.9731 148.095 55.2513 147.624 55.4913C147.154 55.7314 146.806 55.905 146.581 56.0121C146.514 56.0436 146.397 56.0019 146.229 55.8871C146.06 55.7722 145.932 55.6549 145.842 55.5351ZM146.617 47.1267L149.147 45.5822L149.725 47.2075L147.184 48.3187L146.617 47.1267ZM144.446 49.4753L141.482 51.5427L140.828 49.8077L143.898 48.3231L144.446 49.4753Z" fill="#61277D"/>
<path d="M156.104 41.5754C156.193 41.2395 156.291 40.9393 156.397 40.6749C156.5 40.3962 156.611 40.1231 156.731 39.8555C156.862 39.5703 157.008 39.2517 157.17 38.8997L157.749 38.7691C157.771 39.0649 157.819 39.445 157.893 39.9093C157.965 40.3593 158.077 40.9579 158.23 41.7051C158.384 42.4524 158.592 43.4126 158.857 44.5859C159.118 45.7448 159.442 47.1828 159.829 48.8997L161.747 48.8058L161.518 49.6918C161.378 49.7383 161.17 49.8153 160.894 49.9227C160.617 50.0301 160.332 50.1319 160.038 50.2283C159.747 50.3389 159.49 50.4343 159.268 50.5145C159.06 50.5915 158.934 50.6348 158.891 50.6445C158.848 50.6541 158.758 50.6218 158.621 50.5474C158.484 50.4731 158.346 50.3915 158.205 50.3029C158.08 50.211 158.012 50.1436 158.002 50.1006C157.905 49.5362 157.82 48.9916 157.747 48.4668C157.685 47.9245 157.565 47.2599 157.388 46.473C157.252 45.872 157.099 45.2902 156.927 44.7276C156.752 44.1506 156.59 43.6007 156.442 43.0777C156.291 42.5405 156.178 42.0397 156.104 41.5754ZM159.985 43.5875L164.077 42.5303L164.333 43.6677L160.183 44.4674L159.985 43.5875ZM159.872 38.381L161.922 47.4809C161.941 47.5668 161.941 47.7322 161.921 47.9772C161.898 48.208 161.84 48.4842 161.747 48.8058L161.082 48.9557L158.756 38.6325L159.872 38.381ZM154.598 39.0958L154.39 37.4737C155.19 37.3536 156.052 37.2421 156.976 37.1392C157.911 37.0187 158.821 36.919 159.705 36.84C160.6 36.7435 161.388 36.6712 162.069 36.6231C162.75 36.5749 163.243 36.5615 163.548 36.5829C163.58 36.5908 163.64 36.6224 163.728 36.6778C163.826 36.7157 163.921 36.7695 164.012 36.8392C164.114 36.8914 164.203 36.954 164.28 37.027C164.353 37.0856 164.393 37.1292 164.4 37.1579L166.692 47.3308L168.095 47.3529L168.284 48.19C168.118 48.2573 167.905 48.343 167.642 48.4472C167.377 48.537 167.104 48.6285 166.825 48.7216C166.548 48.829 166.304 48.9141 166.093 48.9767C165.885 49.0537 165.759 49.097 165.716 49.1067C165.673 49.1164 165.582 49.0769 165.441 48.9882C165.304 48.9138 165.173 48.8307 165.047 48.7388C164.935 48.6437 164.875 48.5746 164.865 48.5317L162.621 38.5734L157.709 39.0937L157.011 39.2962L156.939 39.1771L154.598 39.0958Z" fill="#61277D"/>
<path d="M176.703 38.5766L178.91 38.756C179.028 38.7591 179.134 38.7117 179.227 38.6141C179.319 38.5018 179.39 38.3253 179.44 38.0845C179.503 37.8277 179.537 37.5001 179.542 37.1017C179.561 36.7018 179.543 36.2173 179.486 35.6481C179.397 34.7432 179.232 34.1257 178.993 33.7957C178.754 33.4656 178.426 33.3507 178.009 33.451L176.257 33.8456L176.125 32.5101L177.767 32.3475C178.54 32.2709 179.201 32.316 179.748 32.4829C180.293 32.6352 180.724 32.9684 181.041 33.4824C181.355 33.9818 181.561 34.7205 181.658 35.6983C181.694 36.0632 181.708 36.423 181.698 36.7776C181.703 37.1162 181.656 37.3934 181.56 37.6093C181.498 37.7333 181.382 37.8996 181.211 38.1081C181.053 38.3006 180.86 38.504 180.631 38.7183C180.401 38.9326 180.164 39.1403 179.918 39.3415C179.672 39.5281 179.437 39.684 179.213 39.8093C179.004 39.9331 178.827 40.0023 178.681 40.0167C178.374 40.0471 178.067 40.0701 177.759 40.0859C177.451 40.1017 177.143 40.1174 176.835 40.1332L176.703 38.5766ZM172.202 34.424L170.812 34.23L170.728 33.3762C170.9 33.3296 171.123 33.278 171.398 33.2214C171.671 33.1501 171.952 33.0855 172.241 33.0274C172.528 32.9547 172.781 32.9002 172.998 32.8639C173.214 32.8131 173.344 32.7854 173.388 32.7811C173.432 32.7768 173.517 32.8199 173.644 32.9105C173.771 33.0011 173.885 33.1078 173.985 33.2304C174.099 33.3371 174.158 33.4123 174.162 33.4561L175.288 44.8185L177.203 44.9605L176.867 45.8117C176.723 45.8407 176.499 45.8923 176.197 45.9665C175.91 46.0392 175.614 46.1053 175.31 46.1648C175.008 46.239 174.742 46.3022 174.511 46.3545C174.295 46.4054 174.173 46.4323 174.143 46.4351C174.1 46.4395 174.014 46.3964 173.887 46.3057C173.761 46.2151 173.633 46.1172 173.505 46.012C173.391 45.9054 173.332 45.8302 173.328 45.7864L172.202 34.424ZM180.985 45.2049C180.701 44.7172 180.363 44.1316 179.971 43.4483C179.594 42.7635 179.215 42.0567 178.833 41.3281C178.464 40.5835 178.125 39.9097 177.815 39.3066L180.114 39.079L180.146 39.4074C180.421 39.9549 180.72 40.5149 181.042 41.0873C181.377 41.6436 181.71 42.1781 182.041 42.6906C182.37 43.1886 182.674 43.6523 182.952 44.0816L184.147 44.317L184.096 45.3611C183.835 45.4017 183.536 45.4313 183.198 45.45C182.861 45.4686 182.53 45.472 182.205 45.46C181.895 45.4612 181.628 45.4434 181.403 45.4067C181.177 45.3554 181.038 45.2881 180.985 45.2049ZM175.884 32.534L176.431 32.4798L177.539 43.667C177.548 43.7546 177.527 43.9188 177.477 44.1595C177.426 44.3857 177.335 44.6526 177.203 44.9605L176.524 45.0277L175.479 34.4753C175.463 34.3147 175.496 34.0535 175.579 33.6917C175.675 33.3284 175.777 32.9425 175.884 32.534Z" fill="#61277D"/>
<path d="M192.721 33.2878C192.589 33.8066 192.458 34.3108 192.329 34.8003C192.215 35.2765 192.113 35.7978 192.021 36.3641C191.931 36.9158 191.853 37.5716 191.79 38.3316C191.698 39.4278 191.683 40.3023 191.746 40.9552C191.824 41.6093 191.944 42.1124 192.105 42.4645C192.267 42.8166 192.452 43.0676 192.66 43.2175C192.869 43.3674 193.058 43.479 193.228 43.5522C193.541 43.6814 193.988 43.7925 194.569 43.8854C195.166 43.9649 195.706 44.0176 196.19 44.0434C196.229 43.9289 196.266 43.7481 196.301 43.5008C196.338 43.239 196.377 42.9552 196.417 42.6495C196.459 42.3292 196.491 42.0302 196.514 41.7525C196.539 41.4602 196.557 41.241 196.569 41.0948L194.984 40.5203L195.433 38.593C195.841 38.642 196.275 38.7226 196.737 38.8349C197.2 38.9326 197.602 39.0473 197.944 39.179C198.302 39.2974 198.52 39.426 198.596 39.5649C198.591 39.8 198.58 40.1081 198.563 40.4893C198.547 40.8559 198.521 41.2512 198.486 41.675C198.45 42.0989 198.408 42.5075 198.361 42.9009C198.314 43.2796 198.264 43.614 198.21 43.9038C198.172 44.1803 198.136 44.3538 198.1 44.4244C197.991 44.5036 197.806 44.5985 197.547 44.7092C197.302 44.8211 197.02 44.9372 196.701 45.0577C196.397 45.1647 196.087 45.2638 195.771 45.355C195.454 45.4461 195.168 45.5178 194.914 45.5701C194.659 45.6223 194.473 45.6435 194.356 45.6337C194.122 45.6141 193.818 45.5591 193.443 45.4688C193.082 45.3797 192.695 45.2589 192.281 45.1064C191.883 44.9406 191.509 44.7473 191.16 44.5267C190.811 44.2914 190.546 44.0336 190.364 43.7534C190.143 43.3964 189.957 42.9907 189.803 42.5363C189.665 42.0831 189.569 41.56 189.515 40.9668C189.477 40.3748 189.49 39.6915 189.555 38.9169C189.64 37.9084 189.775 36.9926 189.962 36.1693C190.163 35.3473 190.38 34.6958 190.612 34.2148C190.792 33.9944 191.025 33.7637 191.31 33.5227C191.596 33.2671 191.888 33.034 192.185 32.8234L192.721 33.2878ZM192.781 43.625L193.603 33.8254C193.616 33.6646 193.696 33.4138 193.842 33.0728C194.003 32.7331 194.173 32.372 194.353 31.9897L194.901 32.0356L194.026 42.471C194.018 42.5587 193.969 42.7018 193.879 42.9003C193.789 43.0988 193.649 43.3593 193.46 43.682L192.781 43.625ZM198.363 36.2999L197.179 36.2006L197.103 33.9424C196.931 33.8838 196.679 33.8185 196.347 33.7465C196.014 33.6745 195.689 33.6103 195.37 33.5541C195.065 33.4992 194.832 33.4649 194.672 33.4515C194.526 33.4392 194.393 33.4355 194.275 33.4403C194.173 33.4317 194.085 33.4316 194.01 33.4401L194.353 31.9897C194.428 31.9666 194.488 31.9569 194.532 31.9605C194.577 31.9496 194.629 31.9466 194.687 31.9515C194.804 31.9613 195.023 31.987 195.343 32.0286C195.678 32.0714 196.056 32.1252 196.477 32.19C196.915 32.2414 197.351 32.3001 197.787 32.3661C198.239 32.4187 198.625 32.4731 198.944 32.5293L198.363 36.2999Z" fill="#61277D"/>
<path d="M207.159 36.808C207.385 36.5438 207.603 36.3153 207.813 36.1226C208.026 35.9156 208.244 35.7174 208.468 35.5279C208.71 35.3275 208.979 35.1034 209.277 34.8555L209.856 34.9882C209.748 35.2643 209.627 35.6278 209.493 36.0787C209.363 36.5154 209.206 37.1038 209.021 37.8439C208.836 38.584 208.61 39.5402 208.341 40.7125C208.076 41.8705 207.747 43.3073 207.354 45.0228L209.124 45.767L208.535 46.4671C208.389 46.4487 208.168 46.4281 207.872 46.4055C207.576 46.3829 207.275 46.3515 206.968 46.3113C206.658 46.2854 206.386 46.2605 206.15 46.2367C205.929 46.2162 205.797 46.201 205.754 46.1912C205.712 46.1813 205.644 46.1133 205.553 45.987C205.461 45.8607 205.372 45.7273 205.284 45.5867C205.21 45.4494 205.178 45.3593 205.187 45.3165C205.344 44.7654 205.502 44.2375 205.663 43.7327C205.842 43.2168 206.021 42.5658 206.201 41.7795C206.339 41.179 206.451 40.588 206.54 40.0063C206.631 39.4103 206.723 38.8446 206.816 38.3091C206.911 37.7593 207.026 37.2589 207.159 36.808ZM209.79 40.2996L213.937 41.1143L213.676 42.2509L209.589 41.1789L209.79 40.2996ZM211.938 35.5555L209.855 44.6479C209.835 44.7337 209.763 44.8827 209.639 45.0951C209.519 45.2932 209.347 45.5171 209.124 45.767L208.459 45.6147L210.823 35.3L211.938 35.5555ZM206.873 33.9211L207.387 32.3686C208.16 32.6059 208.985 32.8778 209.863 33.1842C210.758 33.4796 211.622 33.7828 212.453 34.0937C213.302 34.3936 214.044 34.6689 214.679 34.9196C215.314 35.1704 215.764 35.3714 216.031 35.5227C216.056 35.5435 216.096 35.5979 216.151 35.6857C216.224 35.7626 216.286 35.8521 216.338 35.9542C216.407 36.0453 216.461 36.1404 216.498 36.2392C216.539 36.3238 216.556 36.3804 216.55 36.409L214.221 46.5736L215.477 47.1999L215.285 48.0362C215.107 48.0255 214.877 48.0105 214.596 47.9911C214.318 47.9575 214.032 47.9222 213.74 47.8853C213.444 47.8627 213.187 47.834 212.97 47.7991C212.749 47.7786 212.617 47.7634 212.574 47.7536C212.531 47.7437 212.465 47.6685 212.377 47.528C212.286 47.4017 212.203 47.2699 212.129 47.1326C212.07 46.9986 212.045 46.9101 212.055 46.8672L214.334 36.9171L209.68 35.2639L208.962 35.1446L208.949 35.0061L206.873 33.9211Z" fill="#61277D"/>
<path d="M225.255 39.2031L224.142 38.3483L224.49 37.564C224.662 37.6086 224.882 37.674 225.149 37.7602C225.421 37.8329 225.698 37.9154 225.978 38.0075C226.264 38.0863 226.51 38.1636 226.717 38.2394C226.93 38.3018 227.057 38.3419 227.097 38.3597C227.137 38.3776 227.19 38.4572 227.256 38.5986C227.321 38.7401 227.368 38.889 227.394 39.0453C227.441 39.1942 227.455 39.2887 227.437 39.329L222.807 49.766L224.402 50.8349L223.69 51.4094C223.55 51.3633 223.33 51.298 223.031 51.2133C222.745 51.1346 222.455 51.0461 222.162 50.9481C221.863 50.8634 221.6 50.7869 221.373 50.7185C221.16 50.6561 221.04 50.6189 221.014 50.6071C220.973 50.5892 220.92 50.5096 220.855 50.3681C220.789 50.2267 220.727 50.0786 220.667 49.9238C220.621 49.7749 220.606 49.6803 220.624 49.6401L225.255 39.2031ZM226.666 52.2965L230.699 43.2068C230.836 42.8985 230.902 42.6393 230.899 42.4293C230.896 42.2194 230.836 42.0482 230.718 41.9157C230.62 41.7758 230.463 41.6582 230.249 41.5631C230.034 41.4679 229.783 41.4368 229.496 41.4698C229.222 41.5087 228.939 41.5677 228.647 41.6468L228.231 40.5235C228.536 40.4503 228.881 40.3786 229.265 40.3084C229.668 40.2307 230.033 40.1679 230.359 40.12C230.685 40.0721 230.885 40.0564 230.958 40.0727C231.205 40.1663 231.444 40.2801 231.673 40.414C231.916 40.5538 232.136 40.7078 232.335 40.8759C232.539 41.0307 232.708 41.21 232.842 41.4139C232.918 41.6402 232.953 41.9045 232.947 42.2068C232.942 42.5091 232.898 42.8427 232.816 43.2076C232.735 43.5725 232.605 43.9561 232.426 44.3583L228.849 52.4223L230.435 53.5113L229.723 54.0859C229.583 54.0398 229.37 53.9774 229.084 53.8987C228.798 53.82 228.502 53.7286 228.195 53.6245C227.896 53.5398 227.633 53.4633 227.406 53.395C227.18 53.3266 227.047 53.2835 227.006 53.2657C226.966 53.2478 226.916 53.1615 226.857 53.0067C226.791 52.8652 226.735 52.7201 226.689 52.5712C226.656 52.4283 226.648 52.3367 226.666 52.2965ZM232.699 54.9729L236.732 45.8833C236.868 45.575 236.935 45.3158 236.932 45.1058C236.929 44.8958 236.869 44.7246 236.751 44.5922C236.653 44.4523 236.496 44.3347 236.282 44.2396C236.067 44.1444 235.816 44.1133 235.529 44.1462C235.255 44.1851 234.972 44.2442 234.68 44.3233L234.264 43.2C234.569 43.1268 234.914 43.0551 235.298 42.9848C235.701 42.9071 236.066 42.8443 236.392 42.7965C236.718 42.7486 236.918 42.7328 236.991 42.7492C237.238 42.8428 237.477 42.9566 237.706 43.0905C237.949 43.2303 238.169 43.3843 238.367 43.5524C238.572 43.7071 238.741 43.8865 238.875 44.0904C238.976 44.4403 238.996 44.8662 238.934 45.3681C238.885 45.8759 238.727 46.4315 238.459 47.0348L234.882 55.0988L235.995 55.9536L235.647 56.7379C235.474 56.6933 235.251 56.6346 234.979 56.5619C234.712 56.4757 234.439 56.3865 234.159 56.2944C233.873 56.2156 233.626 56.1383 233.419 56.0625C233.206 56.0001 233.08 55.96 233.039 55.9422C232.999 55.9243 232.949 55.838 232.889 55.6832C232.824 55.5417 232.768 55.3966 232.722 55.2477C232.689 55.1047 232.681 55.0132 232.699 54.9729ZM229.277 40.9874L225.333 49.876C225.298 49.9564 225.199 50.089 225.036 50.2738C224.88 50.4451 224.669 50.6322 224.402 50.8349L223.779 50.5583L228.231 40.5235L229.277 40.9874ZM235.31 43.6639L231.366 52.5524C231.33 52.6329 231.232 52.7655 231.069 52.9502C230.913 53.1216 230.702 53.3086 230.435 53.5113L229.812 53.2348L234.264 43.2L235.31 43.6639Z" fill="#61277D"/>
<path d="M245.068 47.7743L245.579 47.0848C245.738 47.1659 245.938 47.2777 246.179 47.42C246.429 47.5505 246.681 47.6912 246.934 47.8422C247.196 47.9815 247.42 48.1106 247.605 48.2298C247.8 48.3372 247.915 48.4039 247.95 48.4301C247.985 48.4563 248.02 48.5456 248.053 48.6979C248.086 48.8502 248.099 49.0056 248.091 49.1641C248.103 49.3195 248.097 49.4149 248.07 49.4502L241.353 58.5196L244.963 61.7407L247.001 59.5812L247.955 60.2883L245.682 63.5052C244.922 62.9789 244.255 62.5121 243.68 62.1049C243.097 61.7094 242.571 61.3474 242.103 61.0187C241.635 60.6901 241.182 60.3643 240.746 60.0413C240.313 59.7388 239.845 59.4102 239.341 59.0553C239.294 59.0204 239.248 58.9224 239.203 58.7613C239.17 58.609 239.147 58.4551 239.134 58.2997C239.133 58.1531 239.146 58.0621 239.172 58.0267L245.968 48.8513L245.068 47.7743ZM249.847 50.0819L250.289 50.4093L243.716 59.2842C243.664 59.3549 243.538 59.4627 243.34 59.6077C243.15 59.7408 242.903 59.8772 242.599 60.0169L242.051 59.611L248.244 51.2488C248.34 51.1192 248.54 50.9478 248.844 50.7348C249.159 50.5305 249.494 50.3129 249.847 50.0819ZM245.936 54.5496L248.658 56.346L247.674 57.4519L245.268 55.4512L245.936 54.5496ZM249.9 50.1212L253.489 52.7793L250.968 55.7029L250.013 54.9958L251.259 52.9071L249.153 51.0189L249.9 50.1212Z" fill="#61277D"/>
<path d="M252.314 218.987C252.349 219.333 252.364 219.649 252.359 219.933C252.362 220.23 252.354 220.525 252.337 220.818C252.315 221.131 252.291 221.481 252.265 221.867L251.769 222.194C251.644 221.925 251.465 221.587 251.231 221.179C251.005 220.783 250.688 220.263 250.28 219.619C249.872 218.974 249.336 218.15 248.674 217.146C248.019 216.155 247.207 214.925 246.238 213.456L244.477 214.223L244.377 213.313C244.492 213.22 244.659 213.075 244.88 212.876C245.1 212.678 245.331 212.482 245.572 212.288C245.805 212.081 246.011 211.901 246.19 211.747C246.358 211.602 246.46 211.517 246.497 211.492C246.533 211.468 246.629 211.467 246.783 211.488C246.938 211.509 247.096 211.536 247.259 211.569C247.409 211.611 247.497 211.65 247.521 211.686C247.812 212.18 248.084 212.659 248.338 213.124C248.588 213.609 248.935 214.188 249.38 214.861C249.719 215.376 250.069 215.865 250.429 216.331C250.797 216.808 251.142 217.265 251.466 217.702C251.797 218.151 252.08 218.58 252.314 218.987ZM247.972 218.48L244.52 220.917L243.877 219.944L247.475 217.727L247.972 218.48ZM249.921 223.309L244.782 215.524C244.734 215.451 244.675 215.296 244.607 215.06C244.547 214.836 244.504 214.557 244.477 214.223L245.046 213.847L250.876 222.679L249.921 223.309ZM254.601 220.773L255.369 222.217C254.663 222.612 253.897 223.022 253.069 223.445C252.237 223.889 251.422 224.304 250.623 224.691C249.82 225.098 249.108 225.445 248.489 225.731C247.869 226.017 247.413 226.204 247.119 226.292C247.087 226.296 247.02 226.288 246.918 226.267C246.812 226.266 246.705 226.25 246.595 226.216C246.481 226.204 246.375 226.177 246.278 226.136C246.189 226.107 246.136 226.08 246.12 226.056L240.375 217.353L239.054 217.829L238.582 217.113C238.712 216.992 238.882 216.836 239.09 216.645C239.307 216.467 239.529 216.285 239.758 216.099C239.978 215.901 240.176 215.735 240.352 215.602C240.519 215.456 240.621 215.371 240.658 215.347C240.695 215.323 240.795 215.327 240.957 215.36C241.112 215.381 241.264 215.413 241.414 215.454C241.552 215.503 241.634 215.546 241.658 215.583L247.282 224.102L251.691 221.877L252.273 221.44L252.382 221.526L254.601 220.773Z" fill="#C188A9"/>
<path d="M230.116 233.515L230.316 218.83L230.931 218.713C231.1 218.954 231.259 219.21 231.41 219.478C231.56 219.747 231.693 220 231.81 220.238C231.92 220.495 232.013 220.721 232.088 220.914C232.149 221.115 232.18 221.274 232.179 221.392L232.146 231.421L235.598 229.841L234.416 227.326L235.472 226.734L237.603 229.954C237.175 230.21 236.702 230.492 236.184 230.799C235.667 231.105 235.136 231.419 234.593 231.74C234.057 232.073 233.543 232.386 233.051 232.679C232.56 232.971 232.128 233.221 231.757 233.429C231.38 233.656 231.102 233.82 230.923 233.921C230.859 233.956 230.733 233.926 230.544 233.83C230.343 233.741 230.2 233.636 230.116 233.515ZM229.125 220.127L228.926 234.812L228.311 234.929C228.236 234.736 228.155 234.487 228.069 234.182C227.983 233.878 227.91 233.582 227.85 233.296C227.798 233.023 227.772 232.811 227.771 232.66L227.904 221.819L224.239 223.468L225.459 226.188L224.423 226.769L222.234 223.355C222.79 223.027 223.384 222.677 224.017 222.306C224.63 221.929 225.227 221.57 225.808 221.228C226.383 220.872 226.897 220.559 227.35 220.289C227.804 220.018 228.139 219.822 228.357 219.7C228.421 219.664 228.541 219.698 228.716 219.801C228.892 219.905 229.028 220.013 229.125 220.127ZM228.91 228.568L226.488 230.277L225.803 228.694L228.265 227.416L228.91 228.568ZM230.921 226.081L233.74 223.821L234.509 225.509L231.544 227.194L230.921 226.081Z" fill="#C188A9"/>
<path d="M218.553 233.615C218.494 233.958 218.423 234.265 218.34 234.538C218.263 234.825 218.176 235.107 218.08 235.384C217.974 235.679 217.857 236.01 217.727 236.374L217.161 236.555C217.114 236.263 217.032 235.888 216.917 235.432C216.807 234.99 216.642 234.404 216.424 233.673C216.205 232.942 215.913 232.004 215.546 230.859C215.184 229.727 214.735 228.323 214.198 226.647L212.296 226.909L212.446 226.007C212.581 225.948 212.782 225.853 213.048 225.722C213.314 225.59 213.589 225.464 213.873 225.342C214.153 225.206 214.4 225.089 214.615 224.989C214.816 224.894 214.937 224.84 214.979 224.827C215.021 224.813 215.113 224.838 215.256 224.9C215.399 224.962 215.544 225.031 215.692 225.107C215.826 225.187 215.899 225.248 215.912 225.29C216.059 225.844 216.192 226.379 216.311 226.895C216.42 227.43 216.598 228.081 216.844 228.85C217.031 229.436 217.236 230.002 217.456 230.548C217.681 231.107 217.891 231.641 218.084 232.149C218.282 232.67 218.438 233.159 218.553 233.615ZM214.51 231.952L210.527 233.366L210.172 232.255L214.235 231.093L214.51 231.952ZM215.081 237.129L212.238 228.245C212.211 228.161 212.197 227.996 212.195 227.75C212.198 227.518 212.232 227.238 212.296 226.909L212.945 226.702L216.171 236.78L215.081 237.129ZM220.272 235.953L220.621 237.55C219.835 237.74 218.986 237.927 218.075 238.111C217.154 238.313 216.257 238.493 215.383 238.649C214.499 238.824 213.721 238.965 213.047 239.073C212.373 239.181 211.883 239.238 211.577 239.243C211.544 239.238 211.482 239.212 211.39 239.165C211.288 239.136 211.189 239.09 211.092 239.029C210.986 238.986 210.892 238.931 210.809 238.865C210.731 238.813 210.687 238.773 210.678 238.746L207.5 228.814L206.1 228.915L205.839 228.098C205.998 228.016 206.203 227.912 206.455 227.785C206.711 227.672 206.975 227.557 207.245 227.44C207.511 227.309 207.747 227.202 207.952 227.121C208.152 227.026 208.274 226.972 208.316 226.959C208.357 226.945 208.452 226.977 208.6 227.053C208.743 227.115 208.881 227.186 209.015 227.266C209.134 227.351 209.201 227.415 209.214 227.457L212.325 237.179L217.172 236.229L217.85 235.965L217.932 236.078L220.272 235.953Z" fill="#C188A9"/>
<path d="M195.692 235.113L193.486 234.925C193.368 234.922 193.262 234.968 193.168 235.066C193.075 235.178 193.004 235.354 192.953 235.594C192.889 235.851 192.854 236.179 192.848 236.577C192.827 236.977 192.843 237.461 192.897 238.031C192.984 238.936 193.145 239.554 193.383 239.885C193.621 240.216 193.949 240.332 194.367 240.233L196.12 239.846L196.247 241.182L194.604 241.338C193.83 241.412 193.17 241.364 192.624 241.195C192.079 241.04 191.649 240.706 191.335 240.19C191.022 239.69 190.819 238.95 190.726 237.972C190.691 237.607 190.679 237.247 190.69 236.893C190.687 236.554 190.734 236.277 190.832 236.061C190.894 235.938 191.01 235.772 191.182 235.564C191.341 235.372 191.535 235.17 191.765 234.956C191.995 234.743 192.234 234.536 192.48 234.336C192.727 234.15 192.963 233.995 193.187 233.871C193.396 233.748 193.574 233.679 193.72 233.665C194.026 233.636 194.334 233.614 194.642 233.6C194.95 233.585 195.258 233.57 195.566 233.556L195.692 235.113ZM200.177 239.283L201.566 239.482L201.647 240.337C201.475 240.382 201.251 240.433 200.976 240.489C200.703 240.559 200.422 240.623 200.133 240.679C199.845 240.751 199.592 240.805 199.375 240.84C199.158 240.89 199.028 240.917 198.984 240.921C198.941 240.925 198.856 240.882 198.729 240.791C198.602 240.7 198.489 240.593 198.389 240.47C198.276 240.363 198.217 240.287 198.213 240.243L197.132 228.877L195.217 228.727L195.556 227.877C195.701 227.849 195.924 227.798 196.227 227.725C196.514 227.654 196.81 227.589 197.114 227.53C197.417 227.457 197.683 227.395 197.914 227.344C198.13 227.294 198.253 227.267 198.282 227.264C198.326 227.26 198.411 227.304 198.538 227.395C198.664 227.486 198.791 227.584 198.919 227.69C199.033 227.797 199.091 227.873 199.096 227.916L200.177 239.283ZM191.435 228.468C191.718 228.957 192.053 229.544 192.443 230.229C192.817 230.915 193.194 231.623 193.573 232.353C193.938 233.099 194.275 233.774 194.583 234.379L192.284 234.597L192.252 234.269C191.979 233.72 191.683 233.159 191.363 232.586C191.03 232.028 190.699 231.492 190.37 230.978C190.043 230.479 189.741 230.014 189.464 229.584L188.27 229.344L188.325 228.3C188.587 228.26 188.886 228.232 189.223 228.214C189.561 228.197 189.892 228.195 190.217 228.208C190.527 228.208 190.794 228.227 191.018 228.265C191.244 228.317 191.383 228.385 191.435 228.468ZM196.488 241.159L195.94 241.211L194.876 230.019C194.867 229.932 194.889 229.768 194.939 229.527C194.992 229.301 195.084 229.035 195.217 228.727L195.896 228.663L196.9 239.219C196.915 239.38 196.881 239.641 196.798 240.002C196.7 240.365 196.596 240.751 196.488 241.159Z" fill="#C188A9"/>
<path d="M180.04 240.137C180.183 239.621 180.325 239.12 180.465 238.633C180.589 238.16 180.703 237.641 180.807 237.077C180.91 236.527 181.001 235.873 181.082 235.115C181.198 234.021 181.232 233.147 181.183 232.493C181.12 231.837 181.011 231.332 180.857 230.976C180.703 230.62 180.524 230.365 180.319 230.211C180.114 230.056 179.928 229.941 179.759 229.864C179.449 229.728 179.004 229.607 178.426 229.501C177.831 229.408 177.292 229.344 176.809 229.307C176.767 229.421 176.726 229.601 176.685 229.847C176.643 230.108 176.598 230.391 176.551 230.696C176.502 231.015 176.463 231.314 176.434 231.591C176.403 231.882 176.38 232.101 176.364 232.247L177.937 232.856L177.446 234.773C177.039 234.715 176.606 234.625 176.147 234.503C175.686 234.395 175.287 234.271 174.947 234.132C174.592 234.006 174.378 233.872 174.304 233.732C174.314 233.497 174.332 233.189 174.358 232.808C174.382 232.442 174.416 232.048 174.461 231.625C174.506 231.202 174.557 230.794 174.613 230.402C174.668 230.024 174.725 229.691 174.786 229.402C174.83 229.127 174.87 228.954 174.907 228.884C175.018 228.808 175.205 228.717 175.467 228.612C175.714 228.505 175.999 228.396 176.32 228.282C176.626 228.182 176.938 228.09 177.257 228.005C177.576 227.921 177.863 227.856 178.118 227.809C178.374 227.763 178.56 227.746 178.677 227.758C178.91 227.783 179.213 227.844 179.586 227.943C179.945 228.04 180.329 228.169 180.74 228.331C181.134 228.505 181.504 228.707 181.848 228.935C182.191 229.178 182.451 229.442 182.627 229.726C182.84 230.088 183.017 230.497 183.161 230.955C183.289 231.411 183.374 231.936 183.414 232.53C183.439 233.123 183.411 233.806 183.329 234.579C183.222 235.585 183.066 236.498 182.861 237.317C182.642 238.134 182.411 238.781 182.169 239.257C181.984 239.473 181.746 239.698 181.456 239.933C181.164 240.182 180.867 240.409 180.565 240.613L180.04 240.137ZM180.208 229.801L179.17 239.58C179.153 239.74 179.068 239.989 178.914 240.327C178.745 240.663 178.567 241.02 178.38 241.399L177.833 241.341L178.938 230.927C178.947 230.84 178.999 230.698 179.094 230.501C179.188 230.305 179.334 230.047 179.53 229.729L180.208 229.801ZM174.466 237.001L175.647 237.127L175.673 239.386C175.843 239.448 176.094 239.519 176.425 239.598C176.756 239.678 177.08 239.749 177.398 239.812C177.701 239.874 177.933 239.913 178.093 239.93C178.239 239.946 178.371 239.952 178.489 239.95C178.591 239.961 178.68 239.963 178.754 239.956L178.38 241.399C178.304 241.42 178.244 241.429 178.2 241.424C178.155 241.434 178.103 241.436 178.045 241.43C177.928 241.417 177.71 241.387 177.391 241.338C177.057 241.288 176.68 241.226 176.26 241.152C175.824 241.091 175.389 241.022 174.954 240.947C174.504 240.884 174.12 240.821 173.802 240.758L174.466 237.001Z" fill="#C188A9"/>
<path d="M165.449 234.377C165.219 234.637 164.997 234.862 164.784 235.051C164.568 235.254 164.346 235.449 164.119 235.634C163.874 235.831 163.601 236.05 163.299 236.293L162.722 236.15C162.835 235.876 162.962 235.515 163.104 235.066C163.241 234.632 163.408 234.046 163.606 233.309C163.803 232.572 164.046 231.62 164.334 230.453C164.619 229.299 164.973 227.868 165.395 226.16L163.637 225.386L164.238 224.696C164.384 224.717 164.605 224.741 164.9 224.768C165.196 224.796 165.496 224.833 165.802 224.878C166.112 224.909 166.384 224.939 166.619 224.967C166.84 224.991 166.971 225.008 167.014 225.019C167.057 225.029 167.123 225.099 167.212 225.226C167.301 225.354 167.389 225.489 167.474 225.631C167.546 225.77 167.576 225.86 167.566 225.903C167.4 226.451 167.233 226.976 167.063 227.479C166.876 227.991 166.686 228.639 166.492 229.422C166.345 230.02 166.222 230.609 166.124 231.189C166.022 231.784 165.921 232.348 165.819 232.882C165.714 233.43 165.59 233.928 165.449 234.377ZM162.879 230.841L158.746 229.956L159.026 228.824L163.095 229.965L162.879 230.841ZM160.65 235.548L162.888 226.492C162.909 226.407 162.983 226.259 163.111 226.049C163.235 225.853 163.41 225.632 163.637 225.386L164.299 225.549L161.761 235.822L160.65 235.548ZM165.687 237.268L165.147 238.812C164.378 238.561 163.557 238.275 162.685 237.954C161.794 237.643 160.936 237.326 160.11 237.001C159.266 236.686 158.529 236.398 157.899 236.137C157.268 235.875 156.821 235.667 156.558 235.511C156.533 235.49 156.494 235.435 156.44 235.346C156.369 235.268 156.308 235.177 156.258 235.074C156.19 234.982 156.138 234.886 156.102 234.786C156.063 234.701 156.047 234.644 156.054 234.616L158.555 224.492L157.31 223.845L157.516 223.012C157.694 223.026 157.923 223.045 158.205 223.069C158.482 223.107 158.767 223.147 159.059 223.189C159.354 223.217 159.61 223.25 159.827 223.288C160.048 223.313 160.179 223.33 160.222 223.341C160.265 223.351 160.329 223.427 160.415 223.57C160.504 223.697 160.585 223.831 160.656 223.969C160.713 224.104 160.737 224.193 160.726 224.236L158.277 234.146L162.903 235.878L163.618 236.009L163.629 236.148L165.687 237.268Z" fill="#C188A9"/>
<path d="M147.04 232.223L148.148 233.084L147.795 233.866C147.623 233.821 147.403 233.754 147.137 233.667C146.865 233.592 146.589 233.508 146.31 233.414C146.024 233.334 145.778 233.255 145.572 233.178C145.359 233.115 145.233 233.074 145.193 233.056C145.152 233.038 145.1 232.958 145.035 232.816C144.97 232.674 144.925 232.525 144.899 232.369C144.854 232.219 144.84 232.125 144.858 232.085L149.548 221.674L147.958 220.596L148.674 220.026C148.814 220.073 149.033 220.139 149.332 220.226C149.617 220.306 149.907 220.396 150.199 220.496C150.498 220.582 150.761 220.66 150.987 220.73C151.199 220.794 151.319 220.831 151.346 220.844C151.386 220.862 151.438 220.942 151.503 221.083C151.568 221.225 151.63 221.374 151.689 221.529C151.734 221.678 151.748 221.773 151.73 221.813L147.04 232.223ZM145.703 219.122L141.619 228.188C141.48 228.496 141.412 228.755 141.414 228.965C141.415 229.175 141.475 229.346 141.592 229.479C141.689 229.62 141.845 229.738 142.059 229.835C142.273 229.931 142.524 229.963 142.811 229.932C143.086 229.895 143.369 229.837 143.661 229.76L144.071 230.886C143.765 230.957 143.42 231.027 143.036 231.095C142.632 231.17 142.267 231.231 141.94 231.277C141.614 231.323 141.414 231.338 141.341 231.321C141.095 231.226 140.857 231.111 140.628 230.975C140.386 230.834 140.167 230.679 139.969 230.51C139.766 230.354 139.598 230.174 139.465 229.969C139.39 229.742 139.357 229.478 139.364 229.175C139.372 228.873 139.417 228.54 139.501 228.175C139.585 227.811 139.717 227.428 139.898 227.027L143.521 218.983L141.941 217.885L142.656 217.315C142.796 217.362 143.009 217.425 143.294 217.506C143.58 217.586 143.876 217.679 144.182 217.785C144.481 217.871 144.743 217.949 144.969 218.019C145.195 218.089 145.328 218.133 145.368 218.151C145.408 218.169 145.458 218.255 145.517 218.411C145.582 218.552 145.637 218.698 145.682 218.847C145.714 218.99 145.721 219.082 145.703 219.122ZM139.685 216.411L135.601 225.477C135.462 225.785 135.394 226.044 135.396 226.254C135.398 226.464 135.457 226.635 135.574 226.768C135.672 226.909 135.828 227.027 136.042 227.124C136.256 227.22 136.506 227.253 136.794 227.221C137.068 227.184 137.351 227.126 137.644 227.049L138.053 228.175C137.748 228.246 137.403 228.316 137.018 228.384C136.614 228.459 136.249 228.52 135.923 228.566C135.596 228.612 135.397 228.627 135.324 228.61C135.077 228.515 134.839 228.4 134.611 228.265C134.369 228.123 134.149 227.968 133.952 227.799C133.749 227.643 133.581 227.463 133.448 227.258C133.348 226.907 133.331 226.481 133.396 225.98C133.448 225.472 133.609 224.918 133.88 224.316L137.504 216.273L136.396 215.411L136.748 214.629C136.921 214.675 137.143 214.735 137.415 214.809C137.681 214.897 137.954 214.987 138.234 215.081C138.519 215.162 138.765 215.24 138.972 215.317C139.184 215.381 139.311 215.422 139.351 215.44C139.391 215.458 139.44 215.544 139.499 215.7C139.564 215.841 139.619 215.987 139.665 216.136C139.697 216.279 139.704 216.371 139.685 216.411ZM143.028 230.416L147.022 221.55C147.058 221.47 147.158 221.338 147.321 221.154C147.478 220.983 147.691 220.798 147.958 220.596L148.58 220.876L144.071 230.886L143.028 230.416ZM137.01 227.705L141.005 218.839C141.041 218.759 141.14 218.627 141.304 218.443C141.461 218.272 141.673 218.087 141.941 217.885L142.563 218.166L138.053 228.175L137.01 227.705Z" fill="#C188A9"/>
<path d="M127.426 222.726L126.929 223.426C126.769 223.348 126.566 223.24 126.322 223.103C126.07 222.977 125.815 222.842 125.559 222.696C125.294 222.562 125.068 222.437 124.88 222.322C124.684 222.218 124.568 222.154 124.532 222.128C124.496 222.103 124.46 222.014 124.423 221.863C124.387 221.711 124.371 221.556 124.376 221.397C124.36 221.242 124.365 221.147 124.391 221.111L130.923 211.908L127.249 208.76L125.256 210.96L124.287 210.273L126.495 207.011C127.265 207.521 127.942 207.975 128.524 208.37C129.115 208.754 129.648 209.105 130.123 209.424C130.598 209.743 131.057 210.06 131.499 210.374C131.938 210.668 132.413 210.987 132.924 211.332C132.972 211.365 133.02 211.463 133.068 211.623C133.104 211.774 133.13 211.928 133.146 212.083C133.15 212.229 133.139 212.321 133.114 212.356L126.505 221.667L127.426 222.726ZM122.601 220.515L122.153 220.197L128.545 211.191C128.596 211.119 128.719 211.009 128.915 210.86C129.102 210.723 129.346 210.582 129.648 210.436L130.204 210.831L124.181 219.316C124.087 219.448 123.891 219.623 123.591 219.842C123.28 220.053 122.95 220.277 122.601 220.515ZM126.421 215.97L123.664 214.228L124.625 213.103L127.071 215.055L126.421 215.97ZM122.547 220.477L118.906 217.892L121.367 214.918L122.336 215.606L121.133 217.719L123.276 219.564L122.547 220.477Z" fill="#C188A9"/>
<defs>
<clipPath id="clip0_258_189">
<rect width="378" height="293" fill="white"/>
</clipPath>
</defs>
</svg>
