<svg width="70" height="80" viewBox="0 0 70 80" fill="none" xmlns="http://www.w3.org/2000/svg">
<mask id="path-1-inside-1_67_150" fill="white">
<path d="M52.373 37.3106C52.373 40.6466 51.6956 43.95 50.3796 47.0321C49.0636 50.1142 47.1348 52.9146 44.7031 55.2736C42.2715 57.6325 39.3847 59.5037 36.2076 60.7803C33.0305 62.057 29.6253 62.7141 26.1865 62.7141C22.7476 62.7141 19.3424 62.057 16.1653 60.7803C12.9883 59.5037 10.1015 57.6325 7.66984 55.2736C5.2382 52.9146 3.30932 50.1142 1.99333 47.0321C0.677333 43.95 -3.00634e-07 40.6466 0 37.3106L26.1865 37.3106H52.373Z"/>
</mask>
<path d="M52.373 37.3106C52.373 40.6466 51.6956 43.95 50.3796 47.0321C49.0636 50.1142 47.1348 52.9146 44.7031 55.2736C42.2715 57.6325 39.3847 59.5037 36.2076 60.7803C33.0305 62.057 29.6253 62.7141 26.1865 62.7141C22.7476 62.7141 19.3424 62.057 16.1653 60.7803C12.9883 59.5037 10.1015 57.6325 7.66984 55.2736C5.2382 52.9146 3.30932 50.1142 1.99333 47.0321C0.677333 43.95 -3.00634e-07 40.6466 0 37.3106L26.1865 37.3106H52.373Z" fill="#61277D" stroke="#C188A9" stroke-width="2" mask="url(#path-1-inside-1_67_150)"/>
<path d="M26.1865 54.3229C36.1842 54.3229 44.3472 46.7374 44.3472 37.3106C44.3472 27.8839 36.1842 20.2983 26.1865 20.2983C16.1889 20.2983 8.02588 27.8839 8.02588 37.3106C8.02588 46.7374 16.1889 54.3229 26.1865 54.3229Z" fill="#61277D" stroke="#C188A9"/>
<ellipse cx="26.1864" cy="37.3106" rx="14.0067" ry="12.7017" fill="#CEC2FB"/>
<path d="M39.1252 36.2451C38.7061 36.0841 38.3494 35.8069 38.1028 35.4502C37.9109 35.1689 37.7856 34.852 37.7354 34.5209C37.7284 34.373 37.7159 34.2222 37.6979 34.0687C37.5869 33.1338 37.1695 31.3726 35.6207 30.08C33.8436 28.5966 31.7574 28.6904 30.6718 28.8782C30.2435 28.9531 29.8108 29.0027 29.3761 29.0268L29.0476 29.0447C28.279 29.0873 27.5079 29.0471 26.7496 28.925C26.5516 28.8927 26.3356 28.8615 26.1069 28.8284C25.6946 28.7688 25.2287 28.7013 24.7231 28.6069C24.2614 28.2488 23.7626 28.0568 23.2706 28.0553C22.9745 28.0577 22.6825 28.1228 22.4163 28.2456C21.4674 27.9596 19.6859 27.6374 17.9387 28.4725C16.6234 29.1015 15.6395 30.2471 15.1351 31.6407C14.7446 31.4895 14.3699 31.3046 14.0158 31.0885C13.9645 31.0575 13.904 31.0427 13.8431 31.0464C13.7821 31.0501 13.724 31.0721 13.6772 31.1091C13.6305 31.1462 13.5976 31.1963 13.5833 31.2522C13.5691 31.308 13.5744 31.3666 13.5983 31.4193C13.816 31.9066 14.1382 32.3462 14.5449 32.7108C14.6321 32.7887 14.7232 32.8626 14.8179 32.9323C14.7743 33.2508 14.754 33.5716 14.7572 33.8926C14.2577 33.7024 13.7977 33.4315 13.3981 33.0921C13.3497 33.0514 13.288 33.0275 13.2231 33.0243C13.1582 33.0212 13.094 33.0389 13.0412 33.0747C12.9883 33.1105 12.9501 33.1621 12.9326 33.221C12.9152 33.2799 12.9197 33.3426 12.9454 33.3986C13.1938 33.9396 13.7783 34.9112 14.933 35.453C14.9433 37.0662 14.9652 39.9089 14.9776 41.4819C14.9805 41.8478 15.0603 42.2094 15.2126 42.5457C15.3648 42.8821 15.5864 43.1866 15.8647 43.4418C16.1429 43.6969 16.4723 43.8977 16.8339 44.0325C17.1954 44.1673 17.582 44.2334 17.9713 44.2272L18.0521 44.2259C18.1268 44.2247 18.1996 44.2033 18.2618 44.1643C18.3241 44.1254 18.3732 44.0704 18.4032 44.0061C18.4332 43.9417 18.443 43.8706 18.4312 43.8014C18.4195 43.7321 18.3868 43.6675 18.337 43.6153L18.2426 43.5163C18.2383 43.5119 18.2358 43.5064 18.2355 43.5005C18.2351 43.4946 18.237 43.4888 18.2407 43.484L18.3883 43.2936C18.4312 43.2387 18.4568 43.1736 18.4625 43.1058C18.4682 43.0379 18.4536 42.97 18.4204 42.9097C18.3872 42.8493 18.3368 42.7989 18.2747 42.7641C18.2126 42.7293 18.1414 42.7115 18.069 42.7127C17.8189 42.7165 17.5777 42.6268 17.3984 42.4635C17.219 42.3001 17.1162 42.0763 17.1125 41.8413C17.1123 41.8319 17.1121 41.823 17.1125 41.8123L17.2323 35.7635C17.7179 35.6851 18.1861 35.5299 18.6169 35.3045C18.8114 35.2001 18.9964 35.0808 19.17 34.9477C19.4527 35.2414 19.7752 35.4989 20.1292 35.7137C20.1302 36.1022 20.3962 36.4493 20.7715 36.5442L20.5392 37.5338C20.3235 38.453 20.1077 39.3721 19.8916 40.2914C19.6338 41.3919 19.508 42.5158 19.5166 43.6419L19.5168 43.6557C19.5196 44.0517 19.3446 44.4437 19.0237 44.7601C18.9602 44.8244 18.9183 44.9049 18.9032 44.9914C18.8882 45.0779 18.9007 45.1665 18.9392 45.2462C18.9724 45.3214 19.0288 45.3855 19.1012 45.4301C19.1735 45.4747 19.2586 45.4979 19.3453 45.4965L21.9406 45.4548C22.0321 45.4531 22.1224 45.4341 22.2061 45.3991C22.2897 45.3641 22.3652 45.3137 22.4278 45.2508C22.4979 45.1806 22.5525 45.0981 22.5885 45.0081C22.6246 44.918 22.6414 44.8222 22.6379 44.7262L22.5859 43.1002C22.579 42.8957 22.6276 42.6927 22.7272 42.5105L23.0412 41.9541C23.2622 41.5623 23.4834 41.1706 23.7046 40.7789C23.9765 42.2498 24.0446 43.5523 23.5846 44.0068C23.57 44.0212 23.5523 44.0379 23.5324 44.0567C23.3385 44.2395 22.9777 44.5797 23.0627 44.9586C23.0818 45.0398 23.1194 45.1161 23.1729 45.1823C23.2359 45.2598 23.3175 45.3224 23.411 45.3647C23.5046 45.4071 23.6075 45.4282 23.7115 45.4263L26.8327 45.3761C26.9463 45.373 27.0553 45.3326 27.1408 45.2619C27.2262 45.1912 27.2827 45.0946 27.3004 44.9891C27.3031 44.9734 27.305 44.9576 27.3061 44.9417C27.3184 44.7385 27.2043 44.5979 27.0835 44.449C27.0215 44.3751 26.964 44.298 26.9113 44.218C26.8229 44.0798 26.776 43.9215 26.7756 43.76L26.7387 39.484C26.7366 39.314 26.7811 39.1463 26.8679 38.9969C26.9144 38.917 26.9611 38.8372 27.0077 38.7573C27.8793 39.0386 28.787 39.2106 29.7072 39.2689C29.9948 39.2869 30.2843 39.2936 30.574 39.2889C30.8021 39.2853 31.0298 39.2745 31.2572 39.2566C31.3093 39.9337 31.2893 40.6141 31.1977 41.2879C31.0857 42.1046 30.9322 43.223 30.1407 44.2386C30.1073 44.2816 30.0729 44.324 30.0376 44.3657C29.9673 44.4513 29.9223 44.5528 29.9075 44.6599C29.8926 44.7669 29.9083 44.8757 29.953 44.975L29.9552 44.98C29.9991 45.0801 30.0737 45.1656 30.1696 45.2257C30.2654 45.2857 30.3782 45.3175 30.4935 45.3171L33.0164 45.2765C33.3601 45.271 33.6347 45.0005 33.6437 44.6597L33.6437 44.6589C33.6441 44.6552 33.6442 44.6516 33.6443 44.6479C33.6454 44.5674 33.6313 44.4874 33.6024 44.4117L33.5309 44.2264C33.4975 44.1383 33.4928 44.0428 33.5174 43.9521L34.2835 41.1519C34.3334 40.969 34.4103 40.7936 34.5119 40.6306C34.4989 40.9422 34.4928 41.254 34.4936 41.5658C34.4969 42.2387 34.5332 42.9199 34.6014 43.5906C34.6236 43.8096 34.586 44.0305 34.4922 44.2324C34.4494 44.3253 34.4063 44.4182 34.363 44.5112L34.3498 44.5395C34.2641 44.7249 34.271 44.9102 34.3687 45.0479C34.4193 45.1143 34.4871 45.1674 34.5656 45.2023C34.6442 45.2373 34.731 45.2528 34.8178 45.2476L37.2015 45.2092C37.4033 45.2059 37.5682 45.1254 37.6536 44.9882C37.7437 44.8435 37.7346 44.655 37.6286 44.4712L37.4618 44.1805C37.3715 44.0231 37.3172 43.8495 37.3026 43.671C37.2187 42.7088 37.1686 41.7441 37.1525 40.7786C37.1333 39.6113 37.1641 38.4436 37.2449 37.2783C37.357 37.0085 37.4508 36.7324 37.526 36.4517C37.8605 36.801 38.2747 37.0748 38.7378 37.2528C38.8021 37.2768 38.8709 37.2886 38.9402 37.2875C38.9507 37.2873 38.9612 37.2869 38.9717 37.2861C39.0784 37.2766 39.1798 37.238 39.2635 37.1749C39.3472 37.1119 39.4095 37.0273 39.4427 36.9315C39.4916 36.8003 39.486 36.6567 39.4271 36.5295C39.3683 36.4023 39.2605 36.3007 39.1252 36.2451ZM14.7948 32.4635C14.4861 32.1874 14.2308 31.863 14.0402 31.5046C14.3559 31.6823 14.6857 31.837 15.0267 31.9673C14.9706 32.154 14.9231 32.3444 14.884 32.5384C14.8541 32.5136 14.8235 32.4893 14.7948 32.4635ZM18.0741 43.0531C18.0791 43.053 18.0841 43.0542 18.0884 43.0566C18.0927 43.0591 18.0962 43.0626 18.0985 43.0668C18.1008 43.071 18.1018 43.0757 18.1013 43.0804C18.1009 43.0852 18.0991 43.0897 18.096 43.0934L17.9481 43.2843C17.8951 43.352 17.8686 43.4347 17.873 43.5184C17.8775 43.6022 17.9126 43.6818 17.9724 43.7439L18.0668 43.8428C18.0703 43.8464 18.0726 43.8509 18.0735 43.8558C18.0743 43.8606 18.0736 43.8656 18.0716 43.8701C18.0695 43.8746 18.066 43.8784 18.0617 43.8811C18.0573 43.8839 18.0522 43.8853 18.047 43.8854L17.9663 43.8867C17.6247 43.8922 17.2856 43.8342 16.9684 43.7159C16.6512 43.5977 16.3623 43.4216 16.1181 43.1977C15.874 42.9739 15.6796 42.7067 15.546 42.4117C15.4125 42.1166 15.3424 41.7994 15.3399 41.4784C15.3279 39.9535 15.3069 37.2356 15.2963 35.6013C15.7244 35.7519 16.1792 35.8251 16.6368 35.817C16.7159 35.8157 16.793 35.8114 16.8692 35.8058L16.7503 41.8057C16.7499 41.8197 16.75 41.8331 16.7502 41.8471C16.7554 42.1724 16.8977 42.4821 17.1459 42.7082C17.3941 42.9343 17.7279 43.0583 18.0741 43.0531ZM20.4949 35.643L20.8404 32.9349C20.8461 32.8901 20.8326 32.845 20.8029 32.8096C20.7732 32.7741 20.7298 32.7513 20.6821 32.7461C20.6344 32.7408 20.5863 32.7536 20.5486 32.7817C20.5108 32.8097 20.4864 32.8506 20.4806 32.8954L20.1703 35.3284C19.9046 35.1517 19.6602 34.9482 19.4415 34.7216C19.5275 34.6437 19.6106 34.5619 19.691 34.4763C19.7067 34.4595 19.7188 34.44 19.7265 34.4188C19.7343 34.3976 19.7375 34.3752 19.736 34.3529C19.7345 34.3306 19.7284 34.3088 19.718 34.2887C19.7075 34.2687 19.693 34.2508 19.6751 34.236C19.6573 34.2213 19.6365 34.21 19.614 34.2028C19.5915 34.1956 19.5677 34.1926 19.544 34.1941C19.5202 34.1956 19.497 34.2014 19.4757 34.2113C19.4543 34.2212 19.4352 34.2349 19.4194 34.2517C19.1392 34.5534 18.8077 34.8093 18.4384 35.0088C18.0532 35.2149 16.6808 35.8375 15.1899 35.1909C14.2677 34.791 13.7242 34.0843 13.4307 33.5619C14.0833 34.0403 15.1801 34.6128 16.5405 34.4346C17.5639 34.3005 18.3155 33.7989 18.7659 33.4017C18.801 33.3707 18.8216 33.328 18.8232 33.2828C18.8248 33.2377 18.8073 33.1939 18.7745 33.161C18.7416 33.1281 18.6962 33.1088 18.6482 33.1075C18.6002 33.1061 18.5535 33.1227 18.5184 33.1537C18.1065 33.517 17.4205 33.9757 16.4916 34.0974C16.0332 34.1569 15.567 34.1265 15.1223 34.008C15.1 33.3042 15.1994 32.6014 15.4166 31.9269L15.4171 31.926C15.4178 31.9242 15.418 31.9224 15.4186 31.9206C15.8725 30.5327 16.8192 29.3894 18.1022 28.7759C19.5825 28.0684 21.1295 28.2723 21.9901 28.4842C21.4814 28.8279 21.0858 29.3078 20.8425 29.6536C20.8169 29.6913 20.8081 29.7369 20.8179 29.7806C20.8277 29.8242 20.8554 29.8625 20.8951 29.8871C20.9347 29.9116 20.983 29.9205 21.0297 29.9118C21.0764 29.9032 21.1176 29.8776 21.1445 29.8407C22.0311 28.5808 22.8548 28.3953 23.2683 28.3958C23.682 28.397 24.1084 28.5666 24.5097 28.8832C24.5143 28.8874 24.5191 28.8913 24.5241 28.895C24.7124 29.0472 24.8839 29.2169 25.036 29.4015C25.7814 30.2959 26.3682 31.8386 25.999 33.2689C25.7549 34.2146 25.1099 35.0432 24.1826 35.6022C23.2095 36.1824 22.0434 36.404 20.9093 36.2242C20.6496 36.1846 20.4598 35.9184 20.4949 35.643ZM22.7212 41.7953L22.4066 42.3529C22.278 42.5871 22.2151 42.8481 22.2238 43.1112L22.2758 44.7376C22.2779 44.7885 22.2693 44.8393 22.2505 44.8871C22.2316 44.9349 22.203 44.9788 22.1661 45.0162C22.1365 45.0462 22.1009 45.0703 22.0613 45.0872C22.0217 45.104 21.979 45.1133 21.9356 45.1144L19.3403 45.1561C19.3249 45.1562 19.3099 45.1516 19.2975 45.1431C19.285 45.1346 19.2758 45.1226 19.2712 45.1088C19.2618 45.0904 19.2581 45.0699 19.2607 45.0496C19.2633 45.0293 19.272 45.0101 19.2858 44.9943C19.6718 44.6138 19.8825 44.1372 19.8791 43.6511L19.8789 43.6372C19.8706 42.537 19.9935 41.439 20.2454 40.3637C20.4616 39.4444 20.6775 38.5252 20.893 37.6061L21.1303 36.5951C21.3431 36.6169 21.5572 36.6262 21.7713 36.6231C22.0464 36.6186 22.3207 36.593 22.5915 36.5467C22.7654 37.0733 22.927 37.6035 23.0763 38.1367C23.2642 38.8104 23.4494 39.5357 23.5982 40.2418C23.3057 40.7595 23.0133 41.2773 22.7212 41.7953ZM37.3099 44.634C37.3529 44.7087 37.3648 44.7787 37.3411 44.8168C37.3212 44.8486 37.2686 44.8676 37.1965 44.8687L34.8128 44.9071C34.773 44.9078 34.7014 44.9023 34.6703 44.8584C34.6424 44.8192 34.6469 44.7504 34.6819 44.6746L34.6949 44.6467C34.7383 44.5534 34.7814 44.4603 34.8243 44.3673C34.9427 44.1124 34.9901 43.8335 34.962 43.557C34.8947 42.8944 34.8593 42.2291 34.856 41.5633C34.8543 41.1045 34.8686 40.6401 34.8975 40.1817C34.9383 40.1468 34.9805 40.1136 35.0242 40.0821C35.7651 39.5456 36.381 38.8717 36.8333 38.1025C36.79 38.9961 36.7756 39.8907 36.7902 40.7849C36.8065 41.7579 36.8569 42.73 36.9415 43.6997C36.9602 43.9252 37.0288 44.1444 37.143 44.3433L37.3099 44.634ZM36.6273 37.7431C36.1916 38.5517 35.5687 39.2586 34.8046 39.8119C34.734 39.8629 34.6665 39.9178 34.6027 39.9761C34.6006 39.9778 34.5987 39.9797 34.5966 39.9816C34.2738 40.28 34.044 40.6559 33.9326 41.0681L33.1665 43.8682C33.1233 44.0252 33.1315 44.1907 33.1901 44.343L33.2616 44.5284C33.2752 44.5643 33.2821 44.6022 33.282 44.6405C33.2818 44.6435 33.2816 44.6466 33.2816 44.6496C33.2786 44.8079 33.16 44.9337 33.0114 44.9361L30.4885 44.9767C30.445 44.9758 30.4028 44.9629 30.3672 44.9395C30.3316 44.9161 30.3042 44.8833 30.2885 44.8453L30.2864 44.8405C30.2668 44.7978 30.2597 44.7509 30.2657 44.7046C30.2718 44.6583 30.2908 44.6143 30.3209 44.5772C30.3591 44.532 30.3963 44.4862 30.4325 44.4396C31.2795 43.3527 31.4399 42.1838 31.557 41.3303C31.6596 40.5755 31.6752 39.8128 31.6037 39.0554L31.6037 39.0546L31.6036 39.0538C31.5816 38.8179 31.5514 38.582 31.5129 38.3462C31.5056 38.3015 31.4797 38.2615 31.441 38.235C31.4023 38.2084 31.3538 38.1974 31.3063 38.2044C31.2588 38.2114 31.2162 38.2358 31.1878 38.2723C31.1594 38.3088 31.1475 38.3544 31.1548 38.399C31.1831 38.5717 31.2068 38.7446 31.2257 38.9175C30.7288 38.9562 30.2297 38.9601 29.7324 38.9292C28.8647 38.8742 28.0085 38.7144 27.1849 38.4539L27.6867 37.5945C27.7094 37.5549 27.7145 37.5085 27.701 37.4655C27.6875 37.4224 27.6564 37.3862 27.6146 37.3647C27.5727 37.3431 27.5234 37.3381 27.4774 37.3506C27.4315 37.3631 27.3926 37.3921 27.3692 37.4314C27.0961 37.899 26.8232 38.3664 26.5505 38.8337C26.4337 39.0343 26.3738 39.2597 26.3764 39.488L26.4133 43.7636C26.4142 43.9863 26.4791 44.2044 26.6011 44.395C26.6605 44.4854 26.7253 44.5725 26.7952 44.656C26.8992 44.7842 26.9489 44.8491 26.9447 44.9195C26.9443 44.9235 26.9441 44.9275 26.9435 44.9312C26.9431 44.9333 26.9427 44.9353 26.9424 44.9374C26.9385 44.9638 26.9249 44.9881 26.9039 45.006C26.8829 45.024 26.8559 45.0344 26.8276 45.0356L23.7065 45.0858C23.6596 45.0872 23.613 45.0781 23.5707 45.0593C23.5283 45.0404 23.4914 45.0123 23.463 44.9774C23.4408 44.9506 23.4251 44.9196 23.417 44.8865C23.3727 44.6888 23.6536 44.424 23.7886 44.2966C23.8107 44.2757 23.8304 44.2572 23.8466 44.2411C24.3747 43.7194 24.4173 42.4089 23.9723 40.2597C23.9721 40.2386 23.9678 40.2177 23.9595 40.1981C23.8247 39.5559 23.6471 38.8397 23.4267 38.0492C23.2788 37.5209 23.1189 36.9955 22.947 36.4737C23.4537 36.3515 23.9367 36.154 24.3775 35.8887C25.3839 35.2819 26.0848 34.3797 26.3511 33.3482C26.6955 32.0139 26.2818 30.3433 25.3216 29.191C25.2768 29.1376 25.2307 29.0852 25.1833 29.0338C25.4929 29.0843 25.7829 29.1263 26.0506 29.165C26.2776 29.1978 26.492 29.2288 26.6866 29.2605C27.4723 29.387 28.2712 29.4287 29.0676 29.3847L29.3961 29.3667C29.8457 29.3418 30.2934 29.2905 30.7363 29.2131C31.757 29.0363 33.7172 28.9472 35.3796 30.335C36.8383 31.5522 37.2326 33.2211 37.3378 34.1075C37.535 35.7639 36.9774 37.0962 36.6273 37.7431ZM39.1 36.8223C39.0896 36.855 39.0693 36.8842 39.0416 36.9063C39.0139 36.9284 38.9799 36.9425 38.9439 36.9467C38.9197 36.9484 38.8954 36.9449 38.8728 36.9364C38.3767 36.7452 37.9452 36.4312 37.6243 36.0277C37.6592 35.85 37.6863 35.6711 37.7058 35.4913C37.7351 35.5407 37.7662 35.5892 37.799 35.6366C38.0863 36.0516 38.5015 36.374 38.9894 36.5612C39.0389 36.5841 39.0776 36.6234 39.098 36.6716C39.1185 36.7198 39.1192 36.7735 39.1 36.8223ZM18.9268 30.6382C18.8189 30.64 18.7139 30.6717 18.625 30.7295C18.5361 30.7873 18.4674 30.8685 18.4274 30.9628C18.3875 31.0571 18.3782 31.1604 18.4008 31.2595C18.4233 31.3586 18.4766 31.4491 18.5539 31.5196C18.6313 31.5901 18.7292 31.6373 18.8353 31.6554C18.9414 31.6735 19.051 31.6616 19.1501 31.6212C19.2492 31.5808 19.3334 31.5137 19.3921 31.4284C19.4508 31.3431 19.4813 31.2435 19.4798 31.1421C19.4777 31.0062 19.4182 30.8768 19.3145 30.7824C19.2108 30.6879 19.0714 30.6361 18.9268 30.6382ZM18.9369 31.3231C18.9007 31.3237 18.8651 31.3142 18.8347 31.2957C18.8042 31.2773 18.7803 31.2508 18.766 31.2195C18.7517 31.1883 18.7475 31.1537 18.7541 31.1202C18.7607 31.0867 18.7777 31.0557 18.8029 31.0312C18.8282 31.0067 18.8606 30.9898 18.8961 30.9826C18.9315 30.9753 18.9684 30.9782 19.0021 30.9907C19.0358 31.0032 19.0647 31.0248 19.0853 31.0528C19.1058 31.0808 19.1171 31.1139 19.1176 31.148C19.1182 31.1936 19.0995 31.2377 19.0657 31.2705C19.0318 31.3034 18.9855 31.3223 18.9369 31.3231Z" fill="#61277D"/>
<path d="M8.84194 25.3427L7.73103 21.8516L7.81505 21.755L8.92596 25.2461L8.84194 25.3427ZM8.47436 25.7651L7.36346 22.2741L7.44485 22.1805L8.55838 25.6686L8.47436 25.7651ZM8.65815 25.5539L7.54462 22.0659L7.63126 21.9663L8.74217 25.4573L8.65815 25.5539ZM10.3805 23.5743L8.01386 22.0187L7.95092 21.8242L10.4645 23.4777L10.3805 23.5743ZM10.1967 23.7855L8.15313 22.4398L8.08524 22.2451L10.2807 23.689L10.1967 23.7855ZM10.0129 23.9968L8.28744 22.8607L8.2245 22.6662L10.0969 23.9002L10.0129 23.9968ZM8.64959 23.9863L8.60851 23.8556L8.95508 23.4573L9.05392 23.5216L8.64959 23.9863ZM8.74282 24.2765L8.70174 24.1458L9.17433 23.6026L9.27317 23.6669L8.74282 24.2765ZM8.83372 24.5634L8.79264 24.4327L9.39126 23.7447L9.4901 23.809L8.83372 24.5634Z" fill="#61277D"/>
<path d="M12.4884 21.9755L12.9204 17.8841L13.0364 17.8057L12.6044 21.8971L12.4884 21.9755ZM11.9778 22.3201L12.4098 18.2287L12.5258 18.1504L12.0938 22.2418L11.9778 22.3201ZM12.2331 22.1478L12.6651 18.0564L12.7811 17.9781L12.3491 22.0695L12.2331 22.1478ZM11.0398 19.2953L10.9942 19.1843L12.2706 18.3227L12.2565 18.474L11.0398 19.2953ZM11.1401 19.5395L11.0945 19.4285L12.2383 18.6564L12.2209 18.8099L11.1401 19.5395ZM11.2404 19.7837L11.1948 19.6727L12.2027 18.9924L12.1853 19.1459L11.2404 19.7837ZM12.7949 21.1447L12.8123 20.9912L13.7737 20.3421L13.8193 20.4531L12.7949 21.1447ZM12.7593 21.4806L12.7767 21.3271L13.8741 20.5863L13.9197 20.6973L12.7593 21.4806ZM12.7271 21.8143L12.7411 21.6631L13.9744 20.8305L14.02 20.9415L12.7271 21.8143Z" fill="#61277D"/>
<path d="M16.5951 19.4591L16.4632 15.8785L16.5744 15.8152L16.7064 19.3958L16.5951 19.4591ZM16.1082 19.7357L15.9762 16.1551L16.0841 16.0938L16.2195 19.6725L16.1082 19.7357ZM16.3517 19.5974L16.2162 16.0187L16.331 15.9535L16.463 19.5342L16.3517 19.5974ZM18.6332 18.3012L16.6995 16.1216L16.6911 15.9217L18.7445 18.238L18.6332 18.3012ZM18.3897 18.4395L16.7207 16.5551L16.7074 16.3535L18.501 18.3763L18.3897 18.4395ZM18.1463 18.5778L16.737 16.9869L16.7286 16.787L18.2576 18.5146L18.1463 18.5778ZM16.7835 18.1426L16.7791 18.0087L17.2382 17.7479L17.3191 17.8383L16.7835 18.1426ZM16.7954 18.4405L16.791 18.3066L17.417 17.9509L17.4979 18.0414L16.7954 18.4405ZM16.8058 18.7346L16.8014 18.6008L17.5944 18.1503L17.6753 18.2407L16.8058 18.7346Z" fill="#61277D"/>
<path d="M21.855 18.0297L21.5075 14.8326L21.6257 14.812L21.9733 18.0091L21.855 18.0297ZM21.3349 18.1203L20.9873 14.9231L21.1055 14.9026L21.4531 18.0997L21.3349 18.1203ZM21.595 18.075L21.2474 14.8779L21.3656 14.8573L21.7132 18.0544L21.595 18.075ZM21.9699 16.6483L21.9569 16.529L22.883 16.3678C23.0327 16.3417 23.1644 16.285 23.2781 16.1977C23.3943 16.1099 23.4813 15.9989 23.539 15.8646C23.5993 15.7298 23.6205 15.5803 23.6027 15.4159C23.5848 15.2515 23.5324 15.1148 23.4456 15.0056C23.3614 14.896 23.254 14.8189 23.1233 14.7741C22.9953 14.7288 22.8564 14.7193 22.7066 14.7453L21.7806 14.9066L21.7676 14.7873L22.6937 14.626C22.8644 14.5963 23.0237 14.6091 23.1716 14.6644C23.3218 14.7165 23.4453 14.8058 23.542 14.9321C23.6411 15.0553 23.7007 15.2097 23.7209 15.3953C23.741 15.5809 23.7167 15.7512 23.6479 15.9064C23.5815 16.0584 23.4816 16.1866 23.3484 16.2908C23.2175 16.3919 23.0667 16.4573 22.896 16.4871L21.9699 16.6483ZM21.9414 16.3859L21.9284 16.2666L22.8545 16.1053C23.0068 16.0788 23.1304 16.0087 23.2251 15.8949C23.3221 15.7781 23.3613 15.6335 23.3426 15.4612C23.3238 15.2889 23.2554 15.1644 23.1373 15.0877C23.0216 15.0079 22.8875 14.9813 22.7352 15.0078L21.8091 15.169L21.7961 15.0497L22.7222 14.8885C22.8457 14.867 22.9603 14.8754 23.0662 14.9137C23.1718 14.9493 23.2603 15.0122 23.3317 15.1025C23.4028 15.19 23.4458 15.3027 23.4608 15.4406C23.4758 15.5785 23.4585 15.703 23.4091 15.8143C23.3593 15.9229 23.2875 16.0137 23.1937 16.0868C23.0997 16.1572 22.9909 16.2031 22.8674 16.2246L21.9414 16.3859ZM21.9128 16.1234L21.8999 16.0041L22.8259 15.8429C22.9047 15.8291 22.9693 15.7949 23.0196 15.7403C23.0722 15.6825 23.0931 15.6046 23.0825 15.5065C23.0715 15.4057 23.0347 15.3379 22.972 15.3029C22.9119 15.2674 22.8425 15.2565 22.7637 15.2702L21.8376 15.4315L21.8246 15.3122L22.7507 15.1509C22.8637 15.1313 22.9633 15.149 23.0496 15.2042C23.1359 15.2595 23.1863 15.3533 23.2007 15.4859C23.2151 15.6184 23.1867 15.726 23.1153 15.8087C23.044 15.8913 22.9519 15.9425 22.8389 15.9622L21.9128 16.1234ZM23.8057 17.6901L23.1165 16.5581C23.1346 16.5522 23.1527 16.5464 23.1708 16.5405C23.1912 16.5316 23.2102 16.5215 23.2277 16.5103L23.9357 17.6674L23.8057 17.6901ZM23.518 17.7402L22.8397 16.6346C22.8607 16.631 22.8818 16.6273 22.9028 16.6236C22.9261 16.6169 22.9482 16.6103 22.9689 16.604L23.6481 17.7175L23.518 17.7402ZM23.2304 17.7903L22.5564 16.688L22.6865 16.6654L23.3604 17.7676L23.2304 17.7903Z" fill="#61277D"/>
<path d="M27.7176 15.6995L27.7246 15.5797L29.2898 15.725L29.2829 15.8448L27.7176 15.6995ZM27.7024 15.963L27.7093 15.8432L29.2746 15.9886L29.2676 16.1084L27.7024 15.963ZM27.6871 16.2266L27.694 16.1068L29.2593 16.2521L29.2523 16.3719L27.6871 16.2266ZM27.6113 17.3959C27.3617 17.3727 27.1371 17.309 26.9376 17.2049C26.7409 17.0983 26.5739 16.9623 26.4367 16.797C26.2995 16.6317 26.1968 16.4455 26.1287 16.2385C26.0608 16.0287 26.0335 15.8081 26.047 15.5765C26.0604 15.3448 26.1127 15.1329 26.204 14.9406C26.2953 14.7457 26.4184 14.5791 26.5733 14.441C26.7281 14.3028 26.9089 14.2005 27.1156 14.134C27.3252 14.0651 27.5548 14.0423 27.8044 14.0655C28.123 14.0951 28.4003 14.1918 28.6365 14.3555C28.8727 14.5167 29.0532 14.7194 29.1778 14.9639L29.0703 15.0221C28.9554 14.7947 28.7888 14.6052 28.5707 14.4538C28.3552 14.3027 28.0975 14.2131 27.7974 14.1853C27.5637 14.1636 27.3503 14.1839 27.1572 14.2463C26.964 14.3086 26.7957 14.4041 26.6521 14.5326C26.5085 14.6611 26.394 14.8164 26.3087 14.9985C26.2262 15.1782 26.1788 15.3746 26.1664 15.5875C26.1541 15.8005 26.1783 16.0048 26.239 16.2005C26.3026 16.3938 26.398 16.5672 26.5252 16.7209C26.6524 16.8746 26.808 17.0001 26.9919 17.0975C27.1758 17.1949 27.3846 17.2544 27.6182 17.2761C27.8466 17.2973 28.0559 17.2779 28.2463 17.218C28.4366 17.158 28.6035 17.0651 28.7469 16.9393C28.8904 16.8134 29.0044 16.6648 29.0891 16.4933L29.2206 16.5055C29.1318 16.7007 29.0086 16.8699 28.8508 17.0132C28.6958 17.154 28.5135 17.2589 28.304 17.3277C28.0944 17.3966 27.8635 17.4193 27.6113 17.3959ZM27.6418 16.8688C27.4055 16.8468 27.2053 16.7774 27.0413 16.6604C26.8773 16.5408 26.7553 16.3903 26.675 16.2089C26.5948 16.0275 26.5607 15.8329 26.5727 15.6253C26.5849 15.415 26.6411 15.2288 26.7412 15.0668C26.8415 14.9021 26.9796 14.7771 27.1554 14.6917C27.3313 14.6037 27.5375 14.5707 27.7738 14.5926C28.0021 14.6138 28.1958 14.6813 28.3547 14.7951C28.5164 14.9065 28.6378 15.0462 28.7188 15.2143L28.6113 15.2726C28.54 15.1214 28.4325 14.9964 28.2887 14.8974C28.1451 14.7957 27.9711 14.7354 27.7666 14.7164C27.5542 14.6967 27.3683 14.7262 27.2089 14.8051C27.0523 14.8816 26.9297 14.9933 26.8411 15.1403C26.7526 15.2847 26.703 15.45 26.6922 15.6364C26.6814 15.8227 26.7113 15.9968 26.782 16.1586C26.8529 16.3178 26.9613 16.4509 27.1072 16.5582C27.256 16.663 27.4366 16.7253 27.649 16.745C27.8322 16.762 27.9949 16.7423 28.137 16.6859C28.2792 16.6269 28.3948 16.5439 28.4837 16.4371L28.6351 16.4511C28.5332 16.5969 28.3972 16.7087 28.2272 16.7866C28.0573 16.8619 27.8622 16.8892 27.6418 16.8688ZM27.6266 17.1323C27.4141 17.1126 27.2237 17.0588 27.0553 16.9709C26.8897 16.8806 26.7482 16.7657 26.6308 16.6263C26.5161 16.4872 26.4304 16.3307 26.3737 16.1568C26.3199 15.9805 26.2986 15.7952 26.3098 15.6009C26.3211 15.4065 26.3635 15.2285 26.4369 15.0667C26.5132 14.9024 26.6161 14.7621 26.7456 14.6457C26.878 14.5268 27.0312 14.4393 27.2053 14.3832C27.3821 14.3274 27.5767 14.3093 27.7891 14.329C28.0626 14.3544 28.2981 14.4365 28.4956 14.5753C28.6959 14.7117 28.8475 14.8823 28.9504 15.0873L28.8429 15.1455C28.7471 14.9573 28.6093 14.8013 28.4296 14.6776C28.25 14.5512 28.0341 14.4763 27.7819 14.4528C27.5217 14.4287 27.2913 14.4648 27.0909 14.5613C26.8931 14.658 26.7367 14.7987 26.6219 14.9835C26.5073 15.1655 26.4431 15.375 26.4293 15.612C26.4157 15.8462 26.4551 16.0653 26.5474 16.2693C26.6397 16.4733 26.7781 16.6414 26.9626 16.7736C27.1498 16.9061 27.3735 16.9844 27.6337 17.0085C27.8966 17.0329 28.1283 16.9956 28.329 16.8964C28.5297 16.7946 28.6862 16.6513 28.7984 16.4663L28.9338 16.4789C28.8143 16.698 28.6415 16.8693 28.4155 16.9928C28.1896 17.1137 27.9266 17.1602 27.6266 17.1323Z" fill="#61277D"/>
<path d="M31.2547 18.1194L33.0778 15.3968L33.1976 15.4418L31.3746 18.1644L31.2547 18.1194ZM30.7304 17.9228L32.5534 15.2002L32.6695 15.2437L30.8502 17.9677L30.7304 17.9228ZM30.9926 18.0211L32.8119 15.2971L32.9354 15.3435L31.1124 18.066L30.9926 18.0211ZM33.4495 18.9425L33.1294 15.7679L33.2304 15.6151L33.5693 18.9875L33.4495 18.9425ZM33.1873 18.8442L32.9127 16.1018L33.0108 15.9437L33.3071 18.8891L33.1873 18.8442ZM32.9251 18.7459L32.6932 16.4304L32.7941 16.2776L33.045 18.7908L32.9251 18.7459ZM32.1078 17.3124L32.1763 17.211L32.6707 17.3964L32.6845 17.5287L32.1078 17.3124ZM31.9568 17.5396L32.0253 17.4382L32.6995 17.6911L32.7133 17.8233L31.9568 17.5396ZM31.8067 17.7629L31.8753 17.6616L32.7292 17.9818L32.743 18.1141L31.8067 17.7629Z" fill="#61277D"/>
<path d="M35.8756 19.7912L37.195 16.8583L37.2924 16.9284L35.973 19.8613L35.8756 19.7912ZM35.4472 19.4825L36.7666 16.5496L36.864 16.6198L35.5446 19.5527L35.4472 19.4825ZM35.6614 19.6368L36.9808 16.704L37.0782 16.7741L35.7588 19.707L35.6614 19.6368ZM37.9753 21.3042L39.2947 18.3713L39.3921 18.4414L38.0727 21.3743L37.9753 21.3042ZM37.5469 20.9955L38.8663 18.0626L38.9637 18.1327L37.6443 21.0656L37.5469 20.9955ZM37.7611 21.1498L39.0805 18.2169L39.1779 18.2871L37.8585 21.22L37.7611 21.1498ZM37.6431 18.8235L37.629 18.6829L38.6806 18.1316L38.5936 18.325L37.6431 18.8235ZM37.489 19.5481L37.2336 17.403L37.3173 17.2169L37.5933 19.4977L37.489 19.5481ZM37.681 19.1309L37.6669 18.9904L38.482 18.573L38.3967 18.7627L37.681 19.1309ZM37.2624 19.6698L37.0416 17.8298L37.1286 17.6364L37.3651 19.6134L37.2624 19.6698ZM37.7172 19.4324L37.7015 19.2955L38.2933 18.9925L38.2079 19.1822L37.7172 19.4324ZM37.039 19.7842L36.8529 18.2493L36.9399 18.0559L37.1401 19.7314L37.039 19.7842Z" fill="#61277D"/>
<path d="M40.8346 23.4421L42.5317 20.7104L42.6163 20.7955L40.9192 23.5272L40.8346 23.4421ZM40.4623 23.0677L42.1594 20.336L42.244 20.4211L40.5469 23.1528L40.4623 23.0677ZM40.6484 23.2549L42.3456 20.5232L42.4302 20.6083L40.733 23.34L40.6484 23.2549ZM42.6545 20.9995L42.7179 20.8976L43.8432 22.0293L43.7799 22.1312L42.6545 20.9995ZM42.5152 21.2237L42.5786 21.1218L43.7039 22.2535L43.6406 22.3555L42.5152 21.2237ZM42.3759 21.448L42.4392 21.3461L43.5646 22.4778L43.5013 22.5797L42.3759 21.448ZM41.977 22.0902L42.0403 21.9882L43.0049 22.9583L42.9416 23.0602L41.977 22.0902ZM41.8376 22.3144L41.901 22.2125L42.8656 23.1825L42.8022 23.2844L41.8376 22.3144ZM41.6983 22.5386L41.7617 22.4367L42.7262 23.4068L42.6629 23.5087L41.6983 22.5386ZM41.2994 23.1808L41.3627 23.0789L42.4881 24.2106L42.4247 24.3125L41.2994 23.1808ZM41.1601 23.4051L41.2234 23.3031L42.3487 24.4348L42.2854 24.5368L41.1601 23.4051ZM41.0207 23.6293L41.0841 23.5274L42.2094 24.6591L42.1461 24.761L41.0207 23.6293Z" fill="#61277D"/>
<path d="M7.29026 49.9444L10.3377 48.4964L10.4253 48.5897L7.37784 50.0377L7.29026 49.9444ZM6.90709 49.536L9.95453 48.088L10.0394 48.1784L6.99467 49.6294L6.90709 49.536ZM7.09868 49.7402L10.1434 48.2893L10.2337 48.3855L7.18626 49.8336L7.09868 49.7402ZM8.89409 51.6538L10.1984 48.8327L10.3682 48.7508L8.98167 51.7471L8.89409 51.6538ZM8.70251 51.4496L9.83094 49.0135L10.0008 48.9258L8.79009 51.543L8.70251 51.4496ZM8.51092 51.2454L9.46358 49.1885L9.63336 49.1066L8.59851 51.3388L8.51092 51.2454ZM8.48111 49.66L8.59521 49.6064L8.95648 49.9914L8.90259 50.1092L8.48111 49.66ZM8.22784 49.7814L8.34194 49.7277L8.83458 50.2528L8.7807 50.3706L8.22784 49.7814ZM7.97737 49.8999L8.09147 49.8463L8.71549 50.5114L8.6616 50.6292L7.97737 49.8999Z" fill="#C188A9"/>
<path d="M11.4633 53.9449L14.8223 52.348L14.9379 52.427L11.5789 54.0239L11.4633 53.9449ZM10.9547 53.5973L14.3137 52.0004L14.4293 52.0794L11.0703 53.6763L10.9547 53.5973ZM11.209 53.7711L14.568 52.1742L14.6836 52.2532L11.3246 53.8501L11.209 53.7711ZM12.8397 51.1384L12.9035 51.0368L14.175 51.9056L14.0517 51.9666L12.8397 51.1384ZM12.6992 51.3619L12.763 51.2603L13.9024 52.0389L13.7758 52.0976L12.6992 51.3619ZM12.5587 51.5854L12.6226 51.4838L13.6265 52.1699L13.5 52.2286L12.5587 51.5854ZM12.2495 53.8431L12.3761 53.7844L13.3338 54.4388L13.27 54.5405L12.2495 53.8431ZM11.9736 53.9741L12.1002 53.9154L13.1933 54.6624L13.1295 54.764L11.9736 53.9741ZM11.7011 54.1074L11.8243 54.0464L13.0529 54.8859L12.989 54.9875L11.7011 54.1074Z" fill="#C188A9"/>
<path d="M16.0684 56.7688L18.2534 54.1776L18.3724 54.2248L16.1874 56.8161L16.0684 56.7688ZM15.548 56.5621L17.7329 53.9709L17.8482 54.0166L15.6669 56.6094L15.548 56.5621ZM15.8082 56.6655L17.9894 54.0727L18.1121 54.1215L15.9272 56.7127L15.8082 56.6655ZM18.2469 57.634L18.2659 54.5396L18.3871 54.3942L18.3659 57.6812L18.2469 57.634ZM17.9867 57.5306L18.005 54.8576L18.1239 54.7069L18.1057 57.5779L17.9867 57.5306ZM17.7265 57.4273L17.7418 55.1704L17.8631 55.025L17.8454 57.4745L17.7265 57.4273ZM17.0394 56.01L17.1214 55.9135L17.6121 56.1084L17.6119 56.2374L17.0394 56.01ZM16.8582 56.2263L16.9403 56.1298L17.6094 56.3956L17.6092 56.5246L16.8582 56.2263ZM16.6784 56.4389L16.7605 56.3424L17.6081 56.679L17.6078 56.808L16.6784 56.4389Z" fill="#C188A9"/>
<path d="M21.5189 58.6006L21.973 55.4168L22.0915 55.4352L21.6374 58.619L21.5189 58.6006ZM20.9971 58.5196L21.4512 55.3359L21.5698 55.3542L21.1157 58.538L20.9971 58.5196ZM21.258 58.5601L21.7121 55.3763L21.8307 55.3947L21.3766 58.5785L21.258 58.5601ZM21.9695 57.3105L21.9865 57.1917L22.9154 57.3358C23.0656 57.3591 23.206 57.3471 23.3366 57.2999C23.4699 57.2531 23.5807 57.1746 23.6692 57.0642C23.7603 56.9542 23.8175 56.8173 23.8409 56.6536C23.8642 56.49 23.8477 56.3417 23.7912 56.2088C23.7374 56.0763 23.6532 55.9675 23.5388 55.8823C23.427 55.7975 23.296 55.7434 23.1458 55.7201L22.2169 55.576L22.2338 55.4573L23.1627 55.6013C23.334 55.6279 23.4838 55.6916 23.6122 55.7925C23.7436 55.8911 23.8401 56.0167 23.9019 56.1693C23.9666 56.3197 23.9858 56.4872 23.9595 56.672C23.9331 56.8568 23.8678 57.0127 23.7635 57.1395C23.6622 57.2641 23.5348 57.355 23.3812 57.4121C23.2306 57.467 23.0697 57.4811 22.8984 57.4546L21.9695 57.3105ZM22.0068 57.0491L22.0237 56.9303L22.9526 57.0744C23.1055 57.0981 23.2414 57.0706 23.3603 56.992C23.4823 56.911 23.5555 56.7848 23.58 56.6132C23.6045 56.4416 23.5695 56.2999 23.475 56.1881C23.3835 56.0741 23.2613 56.0052 23.1085 55.9815L22.1796 55.8374L22.1966 55.7186L23.1255 55.8627C23.2493 55.8819 23.3573 55.927 23.4496 55.998C23.5422 56.0663 23.6116 56.1553 23.6579 56.265C23.7046 56.3721 23.7182 56.4943 23.6986 56.6316C23.679 56.7689 23.6318 56.883 23.5568 56.9739C23.4823 57.0621 23.391 57.1262 23.283 57.1661C23.1753 57.2034 23.0595 57.2124 22.9357 57.1932L22.0068 57.0491ZM22.0441 56.7878L22.061 56.669L22.9899 56.8131C23.069 56.8253 23.1394 56.8133 23.2011 56.777C23.2658 56.7385 23.3052 56.6704 23.3191 56.5727C23.3334 56.4724 23.3148 56.3953 23.2632 56.3414C23.2143 56.288 23.1503 56.2551 23.0712 56.2428L22.1423 56.0988L22.1593 55.98L23.0882 56.124C23.2015 56.1416 23.2928 56.1909 23.362 56.2718C23.4313 56.3527 23.4565 56.4591 23.4377 56.5911C23.4189 56.7231 23.365 56.8173 23.2762 56.8737C23.1873 56.93 23.0863 56.9494 22.973 56.9319L22.0441 56.7878ZM23.4755 58.9041L23.0927 57.594C23.1115 57.5942 23.1303 57.5944 23.1491 57.5947C23.171 57.5926 23.1917 57.5891 23.2112 57.5841L23.6059 58.9243L23.4755 58.9041ZM23.1869 58.8593L22.8081 57.5782C22.8291 57.5815 22.8502 57.5847 22.8713 57.588C22.8954 57.589 22.9182 57.5899 22.9396 57.5905L23.3174 58.8795L23.1869 58.8593ZM22.8984 58.8145L22.5229 57.538L22.6533 57.5582L23.0288 58.8348L22.8984 58.8145Z" fill="#C188A9"/>
<path d="M27.7595 57.4562L27.7504 57.3366L29.3171 57.2071L29.3262 57.3267L27.7595 57.4562ZM27.7795 57.7195L27.7704 57.5998L29.3371 57.4703L29.3462 57.59L27.7795 57.7195ZM27.7996 57.9827L27.7905 57.8631L29.3571 57.7335L29.3662 57.8532L27.7996 57.9827ZM27.8804 59.152C27.6306 59.1726 27.4001 59.1489 27.189 59.0807C26.9804 59.0097 26.7972 58.9044 26.6395 58.7649C26.4818 58.6254 26.3555 58.4593 26.2607 58.2664C26.1656 58.071 26.1092 57.8575 26.0917 57.6262C26.0741 57.3949 26.0976 57.1762 26.1621 56.9702C26.2265 56.7615 26.326 56.5754 26.4607 56.4117C26.5953 56.2481 26.7604 56.1153 26.9559 56.0136C27.1539 55.9089 27.3778 55.8462 27.6276 55.8256C27.9465 55.7992 28.2335 55.8464 28.4888 55.9671C28.7438 56.0852 28.9492 56.2542 29.1049 56.4741L29.0064 56.5504C28.8625 56.3456 28.6726 56.1874 28.4368 56.0758C28.2037 55.9639 27.937 55.9204 27.6367 55.9452C27.4028 55.9646 27.1945 56.0219 27.0119 56.1173C26.8293 56.2127 26.6756 56.3364 26.5507 56.4885C26.4259 56.6407 26.3335 56.8142 26.2734 57.0092C26.2158 57.2012 26.1951 57.4036 26.2112 57.6163C26.2274 57.829 26.2786 58.0268 26.3647 58.2097C26.4532 58.3897 26.5706 58.5445 26.7169 58.6742C26.8631 58.804 27.0336 58.9009 27.2284 58.9651C27.4231 59.0293 27.6374 59.0517 27.8713 59.0323C28.0999 59.0135 28.3042 58.9578 28.4844 58.8653C28.6646 58.7728 28.8172 58.6518 28.9422 58.5023C29.0672 58.3529 29.1602 58.186 29.221 58.0017L29.3526 57.9908C29.2909 58.1992 29.1916 58.3881 29.0547 58.5572C28.9202 58.7236 28.754 58.859 28.5561 58.9637C28.3581 59.0684 28.1329 59.1311 27.8804 59.152ZM27.8404 58.6255C27.6039 58.6451 27.3967 58.6114 27.2189 58.5244C27.041 58.4347 26.9002 58.3072 26.7968 58.1419C26.6933 57.9765 26.6336 57.7901 26.6179 57.5827C26.6019 57.3727 26.6326 57.1788 26.71 57.0012C26.7873 56.8208 26.9071 56.6731 27.0695 56.558C27.2317 56.4403 27.4311 56.3716 27.6676 56.3521C27.8961 56.3332 28.0965 56.3661 28.2688 56.4509C28.4435 56.5328 28.5821 56.6497 28.6846 56.8018L28.5861 56.8782C28.4954 56.7412 28.3725 56.6363 28.2172 56.5635C28.0617 56.4881 27.8816 56.4588 27.677 56.4757C27.4644 56.4933 27.2845 56.555 27.1375 56.6608C26.9929 56.7637 26.8865 56.8956 26.8185 57.0564C26.7503 57.2146 26.7233 57.3867 26.7375 57.5728C26.7516 57.759 26.8044 57.9258 26.8958 58.0735C26.9871 58.2184 27.112 58.3312 27.2706 58.4117C27.4316 58.4894 27.6184 58.5194 27.831 58.5019C28.0144 58.4867 28.1725 58.4389 28.3055 58.3583C28.4382 58.2751 28.5414 58.1729 28.6151 58.0518L28.7666 58.0392C28.6853 58.2011 28.5658 58.3354 28.4081 58.4421C28.2502 58.5462 28.061 58.6073 27.8404 58.6255ZM27.8604 58.8888C27.6478 58.9063 27.4524 58.8864 27.2742 58.8289C27.0984 58.7685 26.9433 58.6796 26.8087 58.5623C26.6767 58.4448 26.5711 58.305 26.492 58.143C26.4152 57.9781 26.3695 57.7986 26.3548 57.6045C26.34 57.4104 26.3582 57.2269 26.4092 57.0541C26.4627 56.8784 26.5457 56.7217 26.6583 56.584C26.7733 56.4434 26.9131 56.3302 27.0777 56.2443C27.245 56.1582 27.435 56.1064 27.6476 56.0888C27.9213 56.0662 28.165 56.1063 28.3788 56.209C28.595 56.3089 28.7676 56.4511 28.8966 56.6358L28.7981 56.7122C28.6783 56.5428 28.5213 56.4126 28.3272 56.3216C28.1328 56.228 27.9094 56.1916 27.657 56.2125C27.3965 56.234 27.1736 56.31 26.9883 56.4403C26.8057 56.5705 26.6699 56.7369 26.581 56.9396C26.4919 57.1396 26.4564 57.3579 26.4743 57.5946C26.4921 57.8286 26.5602 58.0383 26.6786 58.2239C26.797 58.4094 26.9562 58.5514 27.1563 58.65C27.359 58.7483 27.5906 58.7866 27.851 58.7651C28.1141 58.7434 28.3382 58.666 28.5233 58.5329C28.7082 58.3972 28.8438 58.2282 28.93 58.0257L29.0656 58.0145C28.9767 58.252 28.8287 58.4515 28.6217 58.6131C28.4145 58.772 28.1607 58.8639 27.8604 58.8888Z" fill="#C188A9"/>
<path d="M32.866 58.385L33.022 54.9417L33.1433 54.901L32.9874 58.3443L32.866 58.385ZM32.3351 58.5631L32.491 55.1198L32.6086 55.0803L32.4565 58.5224L32.3351 58.5631ZM32.6006 58.474L32.7527 55.032L32.8779 54.99L32.7219 58.4333L32.6006 58.474ZM35.0884 57.6397L33.2487 55.2157L33.2564 55.0234L35.2098 57.599L35.0884 57.6397ZM34.8229 57.7288L33.2353 55.6336L33.238 55.4387L34.9443 57.6881L34.8229 57.7288ZM34.5575 57.8178L33.2169 56.0489L33.2245 55.8565L34.6788 57.7771L34.5575 57.8178ZM33.1707 57.161L33.177 57.0323L33.6776 56.8644L33.7547 56.9651L33.1707 57.161ZM33.1586 57.4476L33.165 57.3189L33.8476 57.09L33.9247 57.1907L33.1586 57.4476ZM33.1454 57.7304L33.1518 57.6017L34.0164 57.3117L34.0935 57.4124L33.1454 57.7304Z" fill="#C188A9"/>
<path d="M38.2095 56.397L36.5552 53.6391L36.6558 53.5735L38.31 56.3314L38.2095 56.397ZM37.7673 56.6855L36.113 53.9276L36.2135 53.862L37.8678 56.6199L37.7673 56.6855ZM37.9884 56.5412L36.3341 53.7833L36.4346 53.7177L38.0889 56.4757L37.9884 56.5412ZM40.3771 54.983L38.7228 52.2251L38.8233 52.1595L40.4776 54.9174L40.3771 54.983ZM39.9349 55.2715L38.2806 52.5136L38.3811 52.448L40.0354 55.2059L39.9349 55.2715ZM40.156 55.1272L38.5017 52.3693L38.6022 52.3037L40.2565 55.0617L40.156 55.1272ZM38.2934 54.1279L38.1775 54.0746L38.2464 52.7363L38.3555 52.9181L38.2934 54.1279ZM38.7833 54.6339L36.9965 53.8619L36.8916 53.6869L38.7935 54.5032L38.7833 54.6339ZM38.5501 54.2372L38.4342 54.1839L38.4954 53.1514L38.6024 53.3297L38.5501 54.2372ZM38.7707 54.9237L37.2373 54.2632L37.1282 54.0814L38.7755 54.7917L38.7707 54.9237ZM38.8014 54.3453L38.6876 54.2955L38.732 53.5458L38.839 53.7242L38.8014 54.3453ZM38.754 55.2066L37.4739 54.6577L37.3648 54.4759L38.7608 55.0781L38.754 55.2066Z" fill="#C188A9"/>
<path d="M43.5103 52.1961L41.2472 49.9111L41.3289 49.8231L43.5919 52.1081L43.5103 52.1961ZM43.151 52.583L40.888 50.298L40.9696 50.2101L43.2327 52.4951L43.151 52.583ZM43.3307 52.3895L41.0676 50.1046L41.1492 50.0166L43.4123 52.3016L43.3307 52.3895ZM41.5113 49.8029L41.4268 49.7176L42.5127 48.548L42.5972 48.6332L41.5113 49.8029ZM41.697 49.9904L41.6126 49.9052L42.6985 48.7355L42.7829 48.8208L41.697 49.9904ZM41.8828 50.178L41.7984 50.0928L42.8843 48.9231L42.9687 49.0084L41.8828 50.178ZM42.4148 50.7152L42.3304 50.6299L43.2611 49.6273L43.3456 49.7126L42.4148 50.7152ZM42.6006 50.9027L42.5161 50.8175L43.4469 49.8149L43.5314 49.9002L42.6006 50.9027ZM42.7864 51.0903L42.7019 51.005L43.6327 50.0025L43.7171 50.0878L42.7864 51.0903ZM43.3184 51.6274L43.2339 51.5422L44.3198 50.3725L44.4042 50.4578L43.3184 51.6274ZM43.5041 51.815L43.4197 51.7298L44.5056 50.5601L44.59 50.6454L43.5041 51.815ZM43.6899 52.0026L43.6055 51.9173L44.6914 50.7477L44.7758 50.8329L43.6899 52.0026Z" fill="#C188A9"/>
</svg>
